<?xml version="1.0" encoding="UTF-8"?>
<svg id="Layer_1" data-name="Layer 1" xmlns="http://www.w3.org/2000/svg" viewBox="0 0 155.41 157.22">
  <defs>
    <style>
      .cls-1 {
        fill: #231f20;
      }

      .cls-2 {
        fill: #f1f1f0;
      }

      .cls-3 {
        fill: #f1f2f2;
      }

      .cls-4 {
        fill: #fff;
      }

      .cls-5 {
        fill: none;
        stroke: #231f20;
        stroke-miterlimit: 10;
        stroke-width: .5px;
      }

      .cls-6 {
        fill: #f7f7f7;
      }
    </style>
  </defs>
  <g>
    <path class="cls-1" d="M50.78,124.99c-8.83-4.12-17.12-9.31-22.07-18.06-7.8-13.79-3.49-32.05,4.31-44.9-4.66-5.65-6.15-12.6-2.19-19.14,5.3-8.76,19.08-9.74,24.92-1.17,13.91-5.69,29.64-6.05,43.52-.03,2.2-1.74,3.43-3.53,6.19-4.67,7.89-3.23,16.82.02,20.21,7.88,2.76,6.4,1.06,11.99-3.22,17.13,6.68,10.8,10.18,24.25,7.44,36.88-2.79,12.86-13.82,20.71-24.94,26.07-.61-.2-1.78-.93-1.77-1.52,19.91-8.76,29.54-23.01,24.03-45.17-12.33-49.62-80.8-52.39-97.45-4.58-8.08,23.2.4,39.73,22.03,49.5l-1.01,1.77Z"/>
    <path class="cls-1" d="M103.18,123.47c-.01.59,1.16,1.32,1.77,1.52-17.96,8.65-36.11,8.44-54.17,0l1.01-1.77c16.66,7.52,34.69,7.6,51.39.25Z"/>
  </g>
  <path class="cls-3" d="M103.18,123.47c-16.7,7.35-34.73,7.27-51.39-.25-21.63-9.77-30.1-26.3-22.03-49.5,16.64-47.82,85.12-45.04,97.45,4.58,5.51,22.16-4.12,36.41-24.03,45.17Z"/>
  <path class="cls-6" d="M65.71,82.96c.52.27,2.45,1.42,2.76,1.24.47-1.32,4.79-6.45,4.55-7.39-.16-.62-3.32-1.87-3.51-1.7,0,.51-1.09,3.25-1.39,3.27l-19.2-10.31-5.23,2.87c-.12.52.21.34.5.5.7.39,5.25,2.48,5.32,2.8-1.85,2.45-4.35,4.5-5.44,7.47-2.16,5.86.83,12.95,7.4,13.85,3.83.52,5.52-.43,7.51-3.5,1.16-1.79,4.29-6.83,4.96-8.59l1.77-.51Z"/>
  <path class="cls-6" d="M91.28,83.22c1.99,3.4,4.63,10.65,8.47,11.91,5.16,1.7,11.12-2.38,11.76-7.76.69-5.85-2.45-9.13-6.04-13.14.02-.29,4.35-2.45,4.98-2.86.24-.16.68-.29.58-.68-.07-.3-5.21-2.65-5.66-2.6l-17.88,9.95-.76.11c-.06-.51-1.05-2.98-1.4-3.01-.54.49-3.5,1.41-3.4,2.08,1.06,1.09,3.61,6.31,4.53,6.88,1,.62,3.09-1.52,4.16-1.67.11.31.57.64.65.78Z"/>
  <path class="cls-6" d="M78.66,110.09c2.44-1.01,9.81-3.95,9.8-7,0-1.52-1.73-2.75-3.12-2.92-3.21-.39-7.75.07-11.16.02-2.11-.03-5.41-1.13-6.67,1.41s.03,3.95,2.08,5.21c1,.61,6.27,2.73,6.46,3.04.14.22.25,3.07-.38,3.21-3.33,1.17-11.32,2.98-13.16,6.08-2.42,4.09,2.9,3.17,5.1,3.33,6.61.49,13.14.96,19.76,1.25,1.87.08,4.24.53,6.07.54,4.61.01.44-8.25-1.03-10.13-4.02-5.11-8.3-3.55-13.77-2.05l.03-1.99Z"/>
  <path class="cls-1" d="M91.28,83.22s.42.04.63.24c2,1.97,4.26,2.58,6.64.6,1.46-1.21,2.2-6.06.67-6.4-.43-.1-6.69,3.92-7.78,4.26-.26.17-.22,1.2-.16,1.29-.08-.14-.54-.47-.65-.78-1.06.15-3.16,2.29-4.16,1.67-.92-.57-3.47-5.8-4.53-6.88-.11-.67,2.86-1.59,3.4-2.08.35.03,1.34,2.5,1.4,3.01l.76-.11,17.88-9.95c.45-.05,5.59,2.3,5.66,2.6.09.39-.34.52-.58.68-.63.41-4.96,2.57-4.98,2.86,3.59,4.01,6.73,7.29,6.04,13.14-.63,5.38-6.59,9.46-11.76,7.76-3.84-1.26-6.48-8.51-8.47-11.91Z"/>
  <path class="cls-6" d="M63.94,82.96c-2.02,1.72-4.24,2.88-6.82,1.38s-2.35-6.83-1.16-6.92c.48-.04,7.19,4.18,8.19,4.68,0,.3-.15.57-.21.86Z"/>
  <path class="cls-1" d="M63.94,83.47c-.67,1.76-3.79,6.79-4.96,8.59-1.99,3.07-3.68,4.02-7.51,3.5-6.57-.9-9.57-8-7.4-13.85,1.09-2.96,3.59-5.01,5.44-7.47-.07-.31-4.62-2.41-5.32-2.8-.29-.16-.62.02-.5-.5l5.23-2.87,19.2,10.31c.3-.02,1.39-2.75,1.39-3.27.19-.17,3.35,1.07,3.51,1.7.24.94-4.08,6.07-4.55,7.39-.31.18-2.23-.97-2.76-1.24-.26-.14-.86-.74-1.15-.72-.17.02-.42.54-.62.72.06-.29.22-.55.21-.86-1.01-.5-7.71-4.72-8.19-4.68-1.19.09-1.45,5.4,1.16,6.92s4.8.35,6.82-1.38c-.03.16.04.39,0,.51Z"/>
  <path class="cls-4" d="M91.28,83.22c-.06-.09-.1-1.12.16-1.29,1.1-.34,7.35-4.36,7.78-4.26,1.52.34.79,5.19-.67,6.4-2.39,1.97-4.65,1.37-6.64-.6-.21-.2-.61-.22-.63-.24Z"/>
  <g>
    <path class="cls-1" d="M78.66,110.09l-.03,1.99c5.47-1.5,9.75-3.06,13.77,2.05,1.48,1.88,5.65,10.14,1.03,10.13-1.82,0-4.2-.46-6.07-.54-6.62-.29-13.15-.76-19.76-1.25-2.19-.16-7.52.76-5.1-3.33,1.84-3.1,9.83-4.91,13.16-6.08.63-.14.52-2.99.38-3.21-.19-.3-5.46-2.43-6.46-3.04-2.05-1.25-3.31-2.74-2.08-5.21s4.56-1.44,6.67-1.41c3.4.05,7.94-.41,11.16-.02,1.39.17,3.12,1.39,3.12,2.92,0,3.04-7.37,5.99-9.8,7ZM70.09,104.91c1.24,1.43,5,.98,3.69-1.29s-5.05-.27-3.69,1.29ZM82.86,102.76c-3.01.29-1.87,4.78,1.68,2.7,1.78-1.04-.08-2.85-1.68-2.7ZM86.47,119.67c.65-.56,2.09-5.45,1.98-5.92-.41-1.79-6.78-.36-8.06-.02-3.74.99-7.47,2.69-11.14,3.93l15.18-1.28c.16-.72-.3-1.31-.45-1.94-.09-.38-.2-.68.33-.58.56.27,2,4.89,2.16,5.82ZM93.3,121.7c-.44-2.92-1.96-5.78-4.3-7.59.37,2.07-1.43,5.01-1.52,6.74-.01.29.11.86.38.86h5.44ZM85.96,121.44c.16-.16-.82-4.11-1.43-4.28l-15.88,1.51c.05-1.24-3.56.84-3.7,1-.03.03-.09.53.13.5l20.88,1.26Z"/>
    <path class="cls-2" d="M85.96,121.44l-20.88-1.26c-.22.03-.15-.47-.13-.5.14-.16,3.74-2.24,3.7-1l15.88-1.51c.61.17,1.59,4.11,1.43,4.28Z"/>
    <path class="cls-2" d="M86.47,119.67c-.16-.93-1.6-5.55-2.16-5.82-.53-.1-.42.2-.33.58.15.63.6,1.22.45,1.94l-15.18,1.28c3.67-1.24,7.4-2.94,11.14-3.93,1.28-.34,7.66-1.76,8.06.02.11.47-1.33,5.36-1.98,5.92Z"/>
    <path class="cls-2" d="M93.3,121.7h-5.44c-.26,0-.39-.56-.38-.86.09-1.73,1.89-4.67,1.52-6.74,2.34,1.81,3.86,4.68,4.3,7.59Z"/>
    <path class="cls-2" d="M82.86,102.76c1.6-.15,3.46,1.66,1.68,2.7-3.55,2.08-4.69-2.41-1.68-2.7Z"/>
    <path class="cls-2" d="M70.09,104.91c-1.36-1.56,2.44-3.47,3.69-1.29s-2.45,2.72-3.69,1.29Z"/>
  </g>
  <line class="cls-5" x1="64.46" y1="82.13" x2="63.84" y2="83.35"/>
  <line class="cls-5" x1="90.87" y1="82.43" x2="91.69" y2="83.6"/>
  <g>
    <path class="cls-1" d="M116.99,12.48c.08.16.34.82.42,1.04.23.66.31,1.2.42,1.87.05.28.2.59.21.62.12,1.26-.09,2.67,0,3.95l.83-.83c.13-.03.32.04.42,0,0,.79.89.91,1.25,1.25.05.04.06.34.21.42-.36.39-2.6,3.01-2.63,3.21-.02.15.15.6.25.72.5.63.5-.08.81-.41.41-.43,1-.85,1.36-1.24.12.25.57.16.62.21.12.09.56,1.23,1.04,1.04-.03.11.02.29,0,.42-.04.05-.04.34-.2.52-.58.64-1.28,1.17-1.67,1.97l2.08.83c-.02.23-.2.51-.21.62-1.98-.46-3.64-1.9-4.4-3.81-1.73-4.34,1.26-8.87-2.25-13.33-4.35-5.52-11.47-3.87-15.78.72-.2-.32-.11.32-.42-.83,2.18-1.42,4.17-3.32,6.8-3.89,4.16-.91,8.87,1.11,10.85,4.93ZM117.82,23.07c.41.11.4-.17.58-.35.2-.2,1.46-1.54,1.48-1.65.06-.34-.71-.84-.93-1.11l-1.1,1.18-.04,1.93ZM120.08,26.57c.66-1.45,2.28-1.37.55-2.88-.35.47-1.58,1.33-1.68,1.85-.06.33.67,1.32,1.13,1.02Z"/>
    <path class="cls-1" d="M16.24,103.26c.32.55.9,1.06,1.21,1.6,3.17,5.6-1.74,8.34-2.81,13.32-1.29,6,3.33,11.25,9.4,11.06,1.73-.05,3.55-.79,5.29-.84-.03.34-.2.55-.21.62-6.96,2.59-15.24-.54-15.37-8.72,0-.27-.02-.56,0-.83.05-.68.22-1.64.42-2.29.03-.09.15-.25.21-.42.18-.5.48-1.19.72-1.67.73-1.49,2.35-2.7-.3-1.44-.01-.14.02-.28,0-.42-.08-.6-.51-1.03-.62-1.66-.03-.19.02-.42,0-.62.61-.24,3.6-1.25,3.71-1.59s0-.77.03-1.11l-3.11,1.04c.04-.12.21-.33.21-.42-.04-.58-.5-1.07-.83-1.45-.09-.1-.13-.29-.21-.42,1.04-.4,2.04-.94,3.12-1.25.21-.29-1.03-1.74-1.25-2.07.31-.51.4-.39.42-.42ZM15.43,108.43c.19.14,2.26-.63,2.39-.81.23-.32-.37-1.06-.33-1.46-.45.3-2.18.68-2.4,1.03-.13.21.3,1.2.35,1.23ZM17.48,110.32c-1.44.57-3.46.52-2.28,2.49,1.39-.47,2.13-.88,2.28-2.49Z"/>
    <path class="cls-1" d="M17.27,120.09c2.37.03,4.76-.76,7.11-.19.17.04.14.34.31.39,1.71.48,2.15.35,3.49,1.88,3.89,4.43.47,8.67.96,13.58.42,4.29,4.25,8.14,8.7,7.82.02.05.35.7.42.83-3.61.18-6.95-1.79-8.68-4.92-2.02-3.66-.95-6.64-.46-10.45,0-.08.18-.28.21-.62.06-.62.07-1.67,0-2.29-.03-.25-.17-.44-.21-.62-.2-.98-.25-2.31-1.53-1.63-.14.08-1.58,1.23-1.79,1.42-.14-.15-.13-.52-.21-.62.99-.2,1.32-1.48,2.28-1.67.21-.3-.73-1.01-.94-1.24l-1.7,1.4-.47.88c-.19-.13-.49-.16-.62-.42.36-.33,1.07-1.19,1.56-1.67.27-.26.88-.13.32-.73-.83-.89-2.44,1.11-3.23,1.78-.18.15-.47.16-.52.2-.14-.17-.13-.48-.21-.62,1.01-.4,1.85-1.23,2.49-2.08-1.35-.23-2.54-.24-3.12,1.24-.14-.15-.45-.26-.62-.42.18-.16.46-.61.62-.83l-4.15.21c-.05-.44-.02-.3,0-.62Z"/>
    <path class="cls-1" d="M141.29,36.78c0,.38.21.59.21.62-.05.68-.22,1.64-.42,2.29-.05.18-.14.45-.21.62-.4,1.09-1.22,2.45-1.87,3.43-.26.52.99.13,1.04.1.16.07.47.24.62.21.1.43.29.82.42,1.25.05.16,0,.34.21.42-.04.02-.21.34-.47.46-1.2.53-3.84,1.1-3.48,2.66.77-.28,2-.54,2.7-.83.07.07.15.13.21.21.36.48.51.99.83,1.45.08.12.13.35.21.42l-3.12,1.25c-.19.26,1.07,1.75,1.45,1.87-.14.23-.36.52-.42.62-6.41-5.85,2.04-11.38,1.66-17.55-.22-3.44-2.93-7.08-6.23-8.11-3.06-.95-5.69-.21-8.73.31.02-.2-.03-.42,0-.62,5.41-1.63,11.39-1.18,14.37,4.22,1.07,1.94,1,2.67,1,4.71ZM137.76,46.96c1.14-.86,3.6-.71,2.29-2.61-1.41.27-2.17,1.18-2.29,2.61ZM140.04,48.63c-.22-.18-2.27.64-2.39.81-.28.39.15,1.03.12,1.46.36-.22,2.39-.74,2.48-.84.07-.08-.15-1.39-.21-1.43Z"/>
    <path class="cls-1" d="M86.24,148.34c.18.18.2.17.42.42-1.14,2.44-2.51,5.19-4.8,6.73-3.69,2.49-8.17,2.27-11.62-.5-.23-.18-.6-.39-.62-.42-.19-.17-1.09-1.24-1.25-1.45-.09-.13-.34-.5-.42-.62-.58-.96-1.08-2.45-1.46-3.53l-.62,1.24c-.13-.02-.31.03-.42,0-.37-.12-1-.44-1.45-.62-.11-.04-.24-.22-.42-.21.14-.48,1.01-3.77.93-3.95s-.73-.77-.93-.62c-.06.89-.59,1.72-.83,2.49-.21-.01-.42.02-.62,0-.44-.04-.99-.27-1.45-.42-.05-.02-.13-.16-.21-.21.29-.93.37-2.19.83-3.11h-2.29c-.03-.12-.16-.5-.21-.63,1.54-.09,3.11.09,4.5.8,4.42,2.25,3.46,10.17,10.13,12.3,6.43,2.06,10.34-2.45,12.79-7.7ZM61.11,146.46s1.04.23,1.25.32c.55-1.46,1.57-2.66-.63-3.02.15.51-.86,2.45-.62,2.7ZM65.66,149.36c.69-.49.09-2.81-.81-3.1l-.63,2.91c.36-.05,1.19.37,1.44.19Z"/>
    <path class="cls-1" d="M115.74,137.74c-.08,1.26.1,2.61,0,3.85-.47,6.29-5.36,10.24-11.64,9.44-.05,0-.71-.17-.83-.21-.3-.08-1.79-.69-2.08-.83-.04-.02-.3-.22-.62-.42-.95-.57-1.99-1.51-2.81-2.28-.27.33.05.88.1,1.25-.26-.1-.52.19-.62.21-.28.05-1.26.21-1.45.21-.05,0-.4-.31-.62-.21-.21-1.33-.16-4.29-1.87-4.15.22.95.26,1.95.41,2.91-.16-.02-.35.2-.42.21-.46.05-.99-.06-1.45,0-.16.02-.41.22-.62.21-.09-.99-.42-2.1-.42-3.12-.77,0-1.48.39-2.08.83-.13-.13-.28-.29-.42-.42,7.04-4.81,10.11,4.64,16.73,5.19,7.53.63,10.87-6.25,10.07-12.88.22.06.41.14.62.21ZM92.67,144.41l-1.44.19c.31.36.33,2.4.42,2.49.07.08,1.17-.05,1.45,0l-.43-2.68ZM97.25,148.13c-.16-1.38-.68-2.28-2.08-2.7.19.41.32,2.6.42,2.7.08.08,1.35-.05,1.66,0Z"/>
    <path class="cls-1" d="M51.14,6.25c.28.05.56.13.83.21.31.09,1.99.56,2.08.62.03.02-.03.12.42.42,1.02.69,1.96,1.82,3.01,2.49.26-.24-.06-.74-.11-1.04.51.16.38-.4.42-.42.08-.05,1.35,0,1.66,0h.62c.09.57.5,3.72.66,3.91.07.09,1.15.3,1.21.25-.27-.88-.28-1.8-.41-2.7.51.16.38-.4.42-.42.08-.05,1.17,0,1.45,0h.62c.15.97.25,1.94.42,2.91l1.87-.83c.07.04.42-.09.57.04.11.1.02.35.05.37-.72.5-1.78,1.06-2.65,1.2-5.38.84-6.91-3.61-10.96-5.56-3.96-1.91-8.49-.96-11.22,2.49-2.22,2.81-1.79,6.44-2.18,9.77-.2-.06-.42-.34-.62-.42.31-1.98.1-3.84.51-5.82,1.09-5.31,6.05-8.45,11.33-7.47ZM59.64,9.16c-.11-.1-1.14.04-1.44-.01-.24,1.67.61,2.15,1.87,2.91-.15-.43-.32-2.79-.42-2.9ZM63.6,10.19c-.06-.06-1.17.05-1.46,0,0,.35.12,2.4.21,2.49.07.08,1.17-.05,1.45,0-.13-.4-.12-2.4-.21-2.49Z"/>
    <path class="cls-1" d="M137.14,114.89c2.1,4.13,3.63,8.27,1.07,12.6-1.32,2.25-3.34,3.73-5.85,4.43-.22.06-.63.17-.83.21-.73.13-1.32.23-2.08.21-.03,0-.3-.18-.62-.21-1.32-.13-2.44-.28-3.74-.62-.06.05.35.96.41,1.04-.14.07-.17.39-.21.42-.12.09-.88.55-1.04.62-.22.11-.58.11-.83.21-.32-.42-2.24-3.04-2.43-3.1-.27-.09-1.28.08-1.1.49.12.27.95,1.13,1.22,1.5.17.24.17.61.23.69-.08.1-.14.37-.21.42-.48.32-.73.21-1.25.83-.06.07-.15.13-.21.21l-2.18-2.49-1.35,1.66c-.17.03-.34-.19-.42-.21.55-1.58,2.34-2.98,3.94-3.43,2.8-.78,5.5.84,8.23,1.12,7.15.73,12.32-4.41,10.57-11.61-.42-1.72-1.49-3.28-1.97-4.98.2-.02.42.02.62,0ZM124,131.15c-.16-.09-1.94-.32-2.03-.26.2.3,1.43,2.29,1.57,2.3.39.03.88-.65,1.34-.64.09-.13-.81-1.36-.88-1.4ZM118.03,131.72c-.1.14,1.44,2.25,1.57,2.28.22.05.91-.55,1.13-.73.03-.12-1.34-2.03-1.45-2.08-.31-.15-.85.58-1.25.54Z"/>
    <path class="cls-1" d="M68.59,8.53c.17.17.24.25.42.42.57.55.95,1,1.66,1.45.21.14.16.21.62.42.74.32,1.47.52,2.29.42-.07-.98-.17-1.93-.21-2.91h.62c.11.6-.29,2.95.33,3.09.1.02,1.12-.2,1.14-.3.14-.79-.13-1.95-.01-2.79-.28,0-.55,0-.83,0l1.25-.42c0,.12.19.41.21.72.06.79-.04,1.61,0,2.4.07.08,1.18-.39,1.21-.45.09-.15-.15-2.96-.17-3.5h.62c.02.98-.12,1.97.21,2.91,1.37-.58,1.33-1.57,1.24-2.91-.28,0-.55,0-.83,0,.29-.39,1-.16,1.45-.21.04.28-.19,1.04.21,1.04.52-1.25,1.46-2.28,2.29-3.32.46.34.3.31.42.42-2.35,2.95-4,6.99-8.42,7.07-5.57.1-7.05-5.21-11.04-7.65-3.73-2.28-8.68-1.53-11.28,2.04-.27-.07-.56-.16-.83-.21,1.39-1.74,2.62-2.84,4.78-3.43,6.32-1.72,8.85,1.74,12.67,5.71Z"/>
    <path class="cls-1" d="M35.76,22.45c.14.06,1.52,2.11,1.67,2.49.29.06.26.04.43-.13.32-.34.68-1.14,1.02-1.53.16.05.45-.04.62,0-.6,1.48-1.77,2.7-3.25,3.3-5.37,2.15-10.54-3.81-16.7,1.37-5,4.21-3.59,9.81-.83,14.86-.25.05-.57-.04-.83,0-.56-1.99-1.82-3.69-2.23-5.77-.98-4.92,2.28-10.41,7.22-11.68.17-.04.43.03.62,0,.88-.16,1.36-.22,2.29-.21.13,0,.59,0,.62,0,1.37.11,2.63.48,3.95.83-.33-.24-.48-.85-.62-1.04.14-.13.16-.58.21-.62.05-.05,1.17-.61,1.25-.62.1-.02.31-.02.42,0,.94.14,2.22,2.78,2.58,2.84.06.01,1.39-.07,1.15-.45-.75-.58-1.12-1.45-1.66-2.18.08-.1.13-.36.21-.42.21-.15.67-.28,1.03-.54.2-.14.19-.49.22-.5.03-.02.57-.02.62,0ZM35.49,23.3c-.15.02-.99.6-.95.88.04.31,1.24,1.83,1.7,1.77,1.82-.24-.49-2.69-.75-2.65ZM33.27,26.39l-1.77-2.27-1.14.93c.84,1.12,1.4,1.53,2.9,1.35Z"/>
    <path class="cls-1" d="M55.5,145.01c.08.21.14.41.21.62-1.52,1.03-3.08,2.5-4.78,3.22-4.75,2.01-10.33.12-12.67-4.46-.07-.14-.4-.78-.42-.83-.29-.76-.3-1.32-.42-2.08-.04-.29-.2-.59-.21-.62-.11-1.27.08-2.66,0-3.95-.29.31-.79.74-1.04,1.04-.08-.14-.39-.17-.42-.21-.43-.56-.47-.68-1.04-1.25-.08-.08-.13-.3-.21-.42.05-.05.05-.35.2-.52.41-.46,2.41-2.31,2.44-2.7,0-.08-.41-.96-.46-.94-.56.55-1.11,1.11-1.67,1.67-.16.16-.48.16-.52.2-.08-.15-.36-.16-.42-.21-.36-.34-.49-.73-1.04-1.04-.12-.07-.09-.2-.42-.21.96-1.66,3.76-2.81.21-3.53.02-.2-.01-.42,0-.62.57,0,1.13.3,1.6.58,5.43,3.22,2.46,8.44,3.7,13.33,1.26,4.95,5.99,7.7,10.95,6.59,2.49-.56,4.29-2.41,6.39-3.68ZM33.48,132.34c.42-.1,1.03.83,1.14.83.1,0,1.41-1.36,1.46-1.45.29-.61-.33-1.52-.8-1.43-.18.03-1.97,1.81-1.79,2.06ZM35.41,135.52c-.59.65.49,1.08.87,1.6.72-.79,1.67-1.98,1.04-3.12-.23-.41-.33-.03-.49.14-.47.51-1.07.98-1.42,1.38Z"/>
    <path class="cls-1" d="M19.77,46.13c-.16,3.27-2.09,5.83-5.24,6.71-4.68,1.31-10.82,1.75-11.57,8.17-.61,5.24,1.83,8.02,5.79,10.88-.21.14-.04.1-.62.42-2.95-2.39-5.63-4.8-6-8.85-.25-2.82,1.13-6.35,3.3-8.18.05-.04.45-.29.62-.42.49-.35,1.32-.81,1.87-1.04.17-.07.42-.14.62-.21,1.15-.41,2.52-.75,3.74-.83-.12-.17-.73-.77-.83-.83.02-.13-.03-.3,0-.42.02-.07.58-1.19.62-1.25.02-.03.58.11.42-.42,1.08.3,2.24.97,3.32,1.58.51.15.92-.29,1.24-.64,0-.2-1.82-1-2.15-1.18-.19-.1-.29-.35-.34-.38.03-.12-.04-.34,0-.42.07-.14.83-.98,1.04-1.25.06-.08.14-.14.21-.21.84.35,2.03.55,2.91,1.04l.42-2.08c.07-.01.37-.15.62-.21ZM16.16,48.03c-.31.06-.87.9-.67,1.22.05.08,1.61.91,1.78.95.59.15,1.19-.8.95-1.17-.1-.15-1.9-1.04-2.07-1.01ZM15.4,51.74l-2.6-1.23-.73,1.32c.85.62,1.49.59,2.46.38.2-.04.89-.2.87-.47Z"/>
    <path class="cls-1" d="M125.92,27.85c-.03.2.02.42,0,.62-.1,1.01-.19,1.15,0,2.29.03.19-.04.45,0,.62.08.33.84,2.05,1.14,2.05.78-.55,1.49-1.2,2.18-1.84.14.13.16.58.21.62-.26.33-2.04,1.64-2.08,1.77-.05.22.46.75.63.83.67.3,2.08-1.2,2.49-1.77.1.07.48.07.62.21-.74.68-1.35,1.62-2.28,2.18.39.11,1.05.88,1.24.73.25-.66,1.17-1.36,1.77-1.87.33-.28.88-.36.94-.41-.03.12.04.34,0,.42-.28.49-1.69,1.33-2.08,1.87,1.31.51,2.39.18,3.11-1.04.06.05.33.05.42.21-.05.04-.35.87-.62,1.04l4.36-.21c.04.33,0,.24,0,.42-3.9.42-8.45,1.33-11.22-2.18-3.41-4.32-.29-8.88-.85-13.69-.43-3.66-3.77-6.86-7.38-7.38-.33-.05-.91-.15-1.12.19-.08-.22-.33-.88-.42-1.04,5.12-.1,9.53,4.15,9.76,9.25.09,2.1-.55,4.09-.83,6.13Z"/>
    <path class="cls-1" d="M147.11,85.39c3.85,3.06,6.81,6.61,5.76,11.89-.28,1.41-1.78,4.69-3.06,5.35-.66.34-.4.25-.62.42-.3.21-1.69,1.17-1.87,1.25-.08.04-.55.11-.83.21-.9.29-2.87.41-3.54.72-.08.04-.26.25-.2.31.39-.06.61.31.83.42-.02.13.04.32,0,.42-.1.26-.47,1.03-.62,1.25-.07.1-.38.19-.42.42-.1-.06-.49-.02-.76-.16-.65-.34-2.48-1.57-3.03-1.46-.14.03-1.06.48-.78.79.97.09,1.77,1.06,2.49,1.46-.15.09-.15.34-.21.42-.41.51-.51.74-.83,1.25-.05.07-.15.13-.21.21l-2.91-1.25-.42,2.28c-.2.03-.43-.03-.62,0,.4-8.8,10.2-5.21,14.75-10.07,2.29-2.44,2.9-6.57,1.76-9.66-.95-2.56-3.33-4.3-5.29-6.03.19-.11.3-.24.62-.42ZM142.94,105.97c-.08-.12-1.25-.44-1.54-.44-.38,0-1.59.25-1.78.63.62,0,2.11,1.34,2.57,1.23.25-.06.92-1.17.74-1.42ZM139,109.91c-.04-.4.69-.94.54-1.25-.1-.21-2.08-1.31-2.19-1.24-.05.04-.65,1.07-.63,1.13.04.17,2.15,1.45,2.28,1.36Z"/>
    <path class="cls-1" d="M147.11,85.39c-.32.18-.44.3-.62.42-1.11.67-1.01.57-1.87,1.45-.14.14-.11.02-.42.42-.43.56-1.03,1.02-1.25,1.87.96.23,1.94.43,2.91.63.02.21-.19.47-.21.62l-2.91-.62c.09.44-.25.96-.22,1.34.02.22,2.7.56,3.12.74v.42c-.89-.16-1.98-.14-2.91-.41.05.29-.1,1.08.02,1.23.12.14,3.01.55,3.51.64.1.26-.19.52-.21.62l-2.91-.62c.23,1.58,1.33,1.83,2.7,2.08-.03.2.02.42,0,.62-.24-.04-1.16-.54-1.24,0,1.13.67,1.97,1.97,2.91,2.91-.06.06.02.33-.42.62-.87-1.5-2.38-2.51-3.41-3.97-1.4-1.98-2.06-3.82-1.52-6.26,1.28-5.72,7.4-5.49,10.64-9.51,2.36-2.93,2.61-7.86-.11-10.6.13-.22.4-.59.42-.62,3.06,3.15,2.92,8.2.29,11.62-1.84,2.39-3.83,3.01-6.32,4.38Z"/>
    <path class="cls-1" d="M50.72,9.78c-.9,3.91-.67,8.21-4.8,10.26-5.05,2.5-8.15-1.35-12.75-1.74s-8.57,2.44-9.66,7.06c-.19.03-.45-.04-.62,0,.28-3.3,3.08-6.26,6.12-7.28,4.08-1.37,6.62.07,10.29,1.46.2.08.42.36.62.42.44.13,1.54.16,2.08.21.14.01.33.24.83.21.34-.02,1.97-.44,2.07-.75.2-.66-1.18-1.78-1.03-2.57.13-.28.52-.15.62-.21-.01.7.81,2.59,1.51,2.46,1.67-.31-.08-2.31-.68-3.08.1-.07.19-.38.42-.42.38.68,1.4,1.48,1.46,2.49.51-.29.95-.67.79-1.3-.05-.19-1.21-2.47-1.42-2.86.09-.39.37-.32.62-.42-.02,1.05.76,2.16,1.45,2.91.46-1.32.63-2.2-.41-3.32.03-.03-.13-.58.42-.42.14.27.44.96.83.83l.42-4.15c.43.06.49.11.83.21Z"/>
    <path class="cls-1" d="M141.29,36.78c2.34.49,4.26,2.84,5.09,4.99,2.04,5.27-.42,8.69-3.22,12.88-.03.04-.26.04-.62.62-.49.78-.54,1.04-.83,1.87-.02.05-.33.09-.42.62-.1.69.07,1.57,0,2.28,1.04-.17,2.09-.39,3.11-.62.03.19-.04.46,0,.62-.42.13-2.81.52-2.91.62-.04.05.17,1.19.22,1.23.28.28,2.55-.49,3.11-.4.03.09.22.25.21.42-.89.23-1.79.49-2.7.63,0,1.75,2.77.67,3.95.41,0,.23.16.44.21.62-.81-.01-1.61.2-2.37.43-.24.07-.77.08-.74.39,1.12.71,2.13,1.21,3.32.21.05.15.31.33.21.62-.05.01-.82.45-.83.62l3.95,1.46c-.08.24-.05.32-.21.62-3.87-1.58-7.67-2.24-8.83-6.85-1.51-5.99,3.72-8.07,5.08-13,1.2-4.34-.67-8.53-4.56-10.69,0-.03-.21-.25-.21-.62Z"/>
    <path class="cls-1" d="M149.81,102.64c.22.98.36,2.46.23,3.44-.05.4-.43.27-.43.42-.13,4.62-4.32,7.47-8.64,8.17-1.23.2-2.62.1-3.82.23-.2.02-.42-.02-.62,0-.67.08-1.44.38-2.08.62-.2.08-.4.1-.62.21-2.66,1.28-1.56,1.97.42,3.32-.1.08-.37.14-.42.21-.81-.19-2.19-2.19-2.75-.98-.48,1.03,1.31,1.82,2.13,2.23-.09.2-.19.4-.21.62-.74-.53-1.77-.91-2.39-1.66-.19.18-.34.69-.32.93.03.35,2.22,2.03,2.71,2.39-.07.14-.4.18-.42.21l-2.49-1.66c-.33,1.71.67,2.1,1.66,3.12-.07.07-.13.14-.21.21-.12-.1-.59-.11-.73-.41-.17,1.38.89,2.72.94,4.15-.22.08-.31.15-.62.21-.65-3.96-2.93-6.89-.5-10.78,3.25-5.2,8.88-2.69,13.59-4.89,3.74-1.74,5.78-5.82,4.98-9.87.23-.16-.04-.07.62-.42Z"/>
    <path class="cls-1" d="M132.36,131.93c-.76,4.92-5.3,8.35-10.26,7.87-2.15-.21-4.32-1.39-6.36-2.05-.21-.07-.41-.15-.62-.21-.89-.25-1.1-.34-2.08-.42-.2-.02-.42,0-.62,0-.02,0-.11-.15-.27-.14-.34.02-1.99.35-2.01.66.41.75.97,1.51,1.03,2.39-.06.07-.14.13-.21.21l-1.45-2.4c-1.76.33-.73,1.65-.17,2.69.16.29.08.66.59.55-.15.11-.21.49-.62.42-.43-.81-1.06-1.56-1.25-2.49-.28-.2-.88.54-.94.81-.05.25,1.31,2.86,1.57,3.34-.18.14-.45.13-.62.21l-1.35-2.7c-1.23,1.26-.33,2.02.1,3.32-.11.05-.24.22-.42.21-.12-.23-.36-.79-.62-.83l-.63,4.36c-.21-.02-.34-.19-.42-.21.38-3.72.41-7.9,4.01-10.01.68-.4,2.88-1.2,3.56-1.22.41-.01,2.63.37,3.04.52,1.54.57,3.38,1.52,5.14,1.92,5.16,1.18,10.04-1.26,11.05-6.59.2-.04.61-.15.83-.21Z"/>
    <path class="cls-1" d="M2.53,87.68c-.04.07.1.4-.06.57-.09.1-.35.04-.36.06-2.73-3.5-2.86-8.09-.09-11.62,1.61-2.04,3.87-3.19,6.11-4.38.59-.31.42-.27.62-.42.81-.55.89-.36,1.87-1.25.25-.22.16-.12.42-.42.01-.02.28.03.42-.15.17-.22.96-1.57.83-1.72-.99-.03-1.99-.45-2.91-.63-.01-.16.19-.34.21-.42.66-.01,2.47.65,2.92.33.24-.17.28-1.25.18-1.35s-2.47-.33-2.9-.43c0-.11-.23-.43-.21-.62,1.03.16,2.06.41,3.12.42-.02-.31.08-.81-.09-1.05-.11-.15-3.19-.74-3.65-.82.04-.13.19-.3.21-.42l3.12.41c-.51-1.44-1.48-1.72-2.91-1.87.02-.13-.02-.28,0-.42.23.04.86.06,1.04-.1l-2.91-3.01c.07-.07,0-.31.42-.62.69,1.5,2.37,2.27,3.43,3.53,2.04,2.42,2.73,5.35,1.18,8.25-1.69,3.15-5.49,3.72-8.12,5.8-3.93,3.1-5.06,8.24-1.89,12.34Z"/>
    <path class="cls-1" d="M143.16,54.65c3.23.62,6.63,1.79,8.69,4.5,2.16,2.85,2.74,6.94,1.28,10.25-.02.03-.29.4-.42.62-.26.45-.7,1.06-1.04,1.45-.12.14-.45.46-.62.62-.54.53-3.1,2.19-3.11,2.39-.01.35.99.33,1.24.31-.04.13-.2.3-.21.42-.05.47.06,1,0,1.45-.02.16-.22.41-.21.62-1.31-.08-4.26-.92-4.36.83l2.7.21v.62c0,.35,0,.69,0,1.04,0,.13-.26.31,0,.83l-3.32-.21.42,2.28c-.27.16-.59.18-.62.21-2.73-8.04,7.35-8.8,9.23-14.97.71-2.34.62-4.11-.26-6.36-1.64-4.17-5.79-5.96-10.01-6.51.37-.59.6-.58.62-.62ZM148.57,75.21c-1.27-.15-2.24.1-2.91,1.25l2.91.21v-1.46ZM146.69,78.96c-.48-.01-2.46-.42-2.69-.2-.04.04-.21,1.06-.19,1.11.13.58,2.1.17,2.67.53l.21-1.45Z"/>
    <path class="cls-1" d="M23.92,28.89c.8,4.29,3.23,7.38.17,11.49-2.97,3.99-7.1,2.77-11.19,3.77-4.73,1.16-8.26,5.86-6.85,10.71-.17.12-.58.38-.62.42-.85-2.19-.28-4.64.72-6.66,2.51-5.12,6.78-5.05,11.75-5.81.26-.04.58.05.83,0,.82-.15,1.4-.53,2.08-.83.15-.07.27-.13.42-.21.09-.05.37.02.6-.11.27-.16,1.32-.91,1.26-1.22-.38-.64-1.33-.88-1.81-1.23-.18-.13-.2-.51-.26-.56.05-.08.18-.14.21-.21,1.08.24,2.38,2.47,3.02.61.23-.68-1.75-1.57-2.19-2.07.04-.09-.03-.29,0-.42.47.33,1.16.79,1.67,1.13,1.25.83,1.54-.43,1.03-1.03-.15-.17-2.31-1.71-2.7-1.98.12-.25.58-.17.62-.21.35.18,2.03,1.73,2.28,1.45.29-1.47-.54-2.03-1.66-2.7.06-.1.04-.33.21-.42.2.14.9.44.83-.1-.15-1.13-1.09-2.41-1.04-3.64.22-.07.31-.15.62-.21Z"/>
    <path class="cls-1" d="M5.85,89.34c3.35,1.63,7.39,2.41,8.51,6.56,1.62,6.02-3.98,8.43-5.21,13.67-.91,3.88.83,8.27,4.6,9.9-.02.27,0,.56,0,.83-3.59-1.27-5.98-5.97-5.59-9.64.3-2.82,2.36-5.73,3.92-8.02.12-.17.25-.37.42-.62.54-.83.72-.53,1.04-1.87.04-.17-.05-.55,0-.62.01-.02.33.1.41-.15.12-.37.35-1.81,0-2.04-.13-.09-2.76.43-3.12.53-.02-.2.03-.42,0-.62.41-.03,2.8-.32,2.9-.43.06-.06.04-.92-.02-1.1-.3-.92-2.55.28-3.29.07v-.21c.86-.2,1.82-.65,2.7-.83l-.63-.94-3.73.53c0-.14,0-.28,0-.42.9-.19,1.97-.29,2.83-.6.22-.08.58-.09.29-.43-.05-.06-1.34-.71-1.43-.72-.5-.09-1.36.21-1.9.3-.03-.1-.22-.24-.21-.42.06-.01,1.04-.43,1.04-.62-1.37-.38-2.74-.9-3.95-1.66.29-.65.37-.35.42-.42Z"/>
    <path class="cls-1" d="M99.33,11.44c.3,1.16.22.51.42.83.11.17.46,1.23.83,1.87.07.12.1.26.21.42.28.39,1.04,1.81,1.75,1.65.15-.03,1.26-2.18,1.37-2.48.16-.01.33.19.42.21l-1.05,2.58c.02.11,1.08.5,1.16.49.27-.04,1.25-2.4,1.14-2.86.2.03.42-.02.62,0-.32.81-.4,2.04-1.04,2.81,1.42,1.07,2.23-2.1,2.7-3.22.22.03.35.38.42.42l-1.15,2.9c1.81-.23,1.95-1.01,2.6-2.49.16.04.34,0,.42.21-.14.26-.73,1.22-.11,1.04,1.03-.3,2.47-1.76,3.64-2.07.13.21.13.44.21.62-3.75,1.85-6.8,4.82-11.21,2.59-4.75-2.4-3.76-7.68-6.35-11.51-2.35-3.48-7.11-4.81-10.89-2.92-.22-.2-.58-.59-.62-.62,2.87-1.27,5.9-1.36,8.71.12,3.81,2.01,4.81,5.56,5.83,9.44Z"/>
    <path class="cls-1" d="M84.79,1.88s.4.43.62.62c.39.35,1.14,1.23,1.45,1.66.06.09-.11.51.42.42l1.46,3.74c.26-.09.56-1.01.62-1.25.13.02.32-.04.42,0,.44.16.96.51,1.45.62.12.03.28-.02.42,0-.17.63-.92,3.88-.8,4.23.1.29.54.43.8.55.12-.7.31-1.41.52-2.09.06-.21.3-.36.31-.41.04.13.21.32.21.42,0,.74-.66,2.04-.63,2.37.01.14,1.31.67,1.46.53l.62-2.49c.22.08.52-.2.42.42l-.62,2.28h2.29c.08.21.13.45.21.63-.97-.02-1.95.08-2.92-.09-6.36-1.15-4.42-11.6-12.82-13.15-6.2-1.14-9.24,3.14-11.68,8.05-.17-.17-.25-.24-.42-.42C70.58,3.81,73.85-.29,79.49.02c1.46.08,4.12.99,5.3,1.87ZM91.01,8.13c-.04-.06-1.21-.38-1.45-.43-.45,1.5-.21,1.96.42,3.32.32.24,1.12-2.77,1.03-2.9Z"/>
    <path class="cls-1" d="M41.16,142.52c1.16-.11,2.1-1.03,3.11-1.56,3.65-1.91,5.97-2.7,9.45.11s2.66,5.4,4.29,9c2.07,4.56,6.98,6.78,11.6,4.5.03.03.4.23.62.42-3.17,2.26-7.77,1.25-10.5-1.24-2.38-2.17-3.06-5.21-4.05-8.11-.07-.21-.13-.41-.21-.62-.35-.99-.15-.98-.83-2.08-.34-.55-.37-.36-.42-.42-.12-.15-.13-.49-.51-.84-.34-.32-.81-.67-1.25-.82-.13.03-1,2.13-1.15,2.49-.17,0-.32-.18-.42-.21l1.05-2.59c-.43-.2-1.17-.87-1.52-.27-.39.68-.79,1.86-.98,2.65-.21-.01-.42,0-.62,0,.22-.52,1.07-2.63,1.04-3.01l-1.12-.12c-.28,1.22-1.11,2.28-1.58,3.34-.2-.03-.22-.25-.21-.42.04-.52,1.16-2.58,1.04-2.7-1.48.02-2.01.82-2.49,2.08-.04-.04-.3.02-.42,0,.09-.2.32-.87.11-1.04l-3.64,2.08c-.12-.2-.33-.42-.42-.62Z"/>
    <path class="cls-1" d="M103.28,150.83c.12.03.78.2.83.21-2.75,3.46-7.1,4.67-11.27,3.07-2.8-1.08-4.26-3.25-6.18-5.35-.22-.24-.23-.24-.42-.42-.92-.91-.54-.74-1.87-1.45-.14-.08-.27-.14-.42-.21-.04-.02-.17-.3-.5-.43-.41-.17-1.13-.35-1.59-.31-.31.23-.25,2.49-.2,3.03h-.42c-.1-.62.23-2.73-.19-3.03-2.05-.32-1.41.81-1.25,2.3.04.39-.25.84.41.72-.19.02-.64.4-1.04.21-.05-.96.04-1.94,0-2.91-2.04-.04-1.07,2.21-1.07,3.44,0,.24-.18.45-.17.51h-.42c.05-.37,0-2.92-.31-2.91-1.38.52-1.18,1.68-1.14,2.91-.09.01-.37.31-.62.21,0-.31.1-.82-.1-1.04l-2.39,3.12c-.1-.07-.26-.08-.42-.21,2.64-4.32,5.57-8.66,11.38-6.5,3.19,1.19,4.18,4.13,6.59,6.08,4.12,3.34,9.34,3.04,12.77-1.03Z"/>
    <path class="cls-1" d="M11.67,74.59c.57.78.5,2.28.42,3.23-.46,5.38-8.33,6.1-9.71,12.51-1.44,6.66,4.08,10.92,10.12,11.68-.16.25-.3.45-.42.62-5.94-.97-11.07-4.68-10.57-11.3.03-.34.51-2.91.6-3.04.01-.02.26.05.36-.06.16-.17.01-.5.06-.57.18-.31.98-1.35,1.25-1.66.03-.04.63.13.42-.62l3.11-2.08-.1-.41c-.38,0-.76.01-1.14,0,.01-.14-.02-.28,0-.42.09-.61.21-.98.21-1.66,0-.14,0-.28,0-.42.78-.26,3.73.37,4.15.11.08-.05.66-.9.62-.93-.89-.31-1.93-.01-2.7-.42.17-.34-.19-.69-.21-.83,0-.07.01-.14,0-.21.4-.29.15-1,.21-1.45,1.1.17,2.2.27,3.32.21l-.41-2.08c.15-.09.33-.15.42-.21ZM11.67,77.5c-.72.24-2.01-.37-2.57-.19-.45.15-.42,1.35-.34,1.43s2.13.26,2.36.18c.4-.14.44-1.03.54-1.43ZM9.8,81.03c-.49.23-2.78-.29-2.9-.2-.13.09-.31,1.56-.22,1.66,1.54.24,2.29-.21,3.12-1.45Z"/>
    <path class="cls-1" d="M137.55,38.86c-.19.55-.31.59-.42.83-3.53.16-6.73.67-9.95-1.17-2.22-1.26-4.31-4.43-4.8-6.94-.04-.18.03-.43,0-.62-.09-.61-.23-1.7-.21-2.29,0-.11.18-.39.21-.62.13-1.33.43-2.63.62-3.95-.14.34-.79.58-.83.62.02-.13-.03-.31,0-.42.14-.46.89-1.02.99-1.39.17-.57-.02-1.32.04-1.93-.71.64-1.75,1.36-2.08,2.29-.06-.04-.5.04-.62-.21.13-.14.21-.5.41-.72.35-.39,1.98-1.84,2.03-2.11.06-.29-.27-1.2-.68-1.11-.11.02-1.35,1.43-1.56,1.66-.15-.08-.16-.37-.21-.42.7-1.15,2.5-2.17.33-2.89-.21.05-.93,1.39-1.58,1.65-.09.04-.29-.03-.42,0,1.56-2.04,2.27-2.48-.83-3.12,0-.03-.16-.34-.21-.62,2.24.24,4.76,1.95,5.56,4.1,1.68,4.51-1.97,8.86.52,14.23,2.71,5.84,7.99,5.76,13.65,5.15Z"/>
    <path class="cls-1" d="M7.72,87.26c6.23,1.53,11.07,6.47,9.56,13.3-.04.19-.16.7-.21.83-.04.11-.77,1.78-.83,1.87-.02.03-.1-.1-.42.42-.72,1.18-1.68,2.3-2.49,3.43.15.32.45-.04.62-.1.08.12.12.31.21.42-1.33.63-1.84.89-2.28,2.39l3.11-.94c0,.09-.17.29-.21.42-1.06,1.06-3.6.7-3.11,2.7.09.1,2.18-.92,2.49-1.04.02.2-.03.43,0,.62-1.38.72-3.4.81-1.77,2.68l2.39-1.02c.02.13-.01.28,0,.42-.75.36-1.47.83-2.29,1.04-.15.2,1.51,1.93,1.87,2.07-.06.16-.18.33-.21.42-1.58-.47-2.91-2.95-3.09-4.49-.78-6.45,7.38-8.92,5.45-16.87-1.17-4.81-5-6.48-9.21-8.14.14-.13.16-.19.42-.42Z"/>
    <path class="cls-1" d="M18.11,116.97c-.15.34-.13.6-.21.83-.35.97-.53,1.06-.62,2.29-.02.32-.05.18,0,.62.11.92.27,1.78.94,2.49.16.04,2.32-1.63,2.59-1.87.17.15.48.26.62.42.12.13.54.69.62.83s.07.46.21.62c-.63.55-1.17,1.67-2.08,1.87.62,1.99,2.55-.5,3.43-1.26.18-.15.47-.16.52-.2.14.26.43.29.62.42s.74.5.83.62c.07.1.07.47.21.62-.18.16-.46.61-.62.83l3.95-.62c.04.18.18.37.21.62-4.49.89-9.65,2.05-12.02-3.04-2.37-5.09,1.88-7.82,3.03-12.08.96-3.54-.19-7.53-3.26-9.6.04-.13.17-.65.21-.83,3.61,2.76,5.05,7.09,3.42,11.42-.64,1.7-1.87,3.35-2.59,4.99ZM20.7,121.96l-2.18,1.97c.76.74.76,1.24,1.76.52,1.14-.82,1.86-1.56.42-2.49ZM22.05,126.11c1.34.51,2.27.16,3.11-.93-.28-.21-.76-.98-1.11-.92-.19.03-2.11,1.71-2,1.85Z"/>
    <path class="cls-1" d="M148.15,69.61c-.25.42.2.1-.42.62-6.33-1.82-11.19-6.66-9.56-13.71.03-.12.15-.42.21-.62.13-.43.63-1.7.83-2.08.05-.1.28-.4.42-.62.26-.44,2.31-2.82,2.08-3.12-.04-.05-.36.04-.42,0-.08-.07-.13-.3-.21-.42,1.43-.59,2.35-.91,2.28-2.7l-3.11,1.25c-.06-.08-.14-.14-.21-.21.43-.18,3.53-1.69,3.64-1.87.21-.34.13-1.23-.21-1.25-.06,0-.81.47-1.09.57-.36.14-.89.16-1.09.25-.21-.08-.16-.26-.21-.42.35-.16,2.4-.74,2.49-.83.18-.2-.42-1.31-.42-1.66-.23-.17-2.23,1.19-2.49,1.25-.15.03-.46-.14-.62-.21.02-.01-.05-.33.14-.42.75-.37,1.78-.68,2.56-1.03.22-.29-1.4-1.99-1.87-2.07.06-.17.15-.45.21-.62,1.08.58,1.9,1.57,2.43,2.66,3.18,6.46-4.46,9.89-4.93,15.93-.49,6.24,4.1,9.77,9.56,11.33Z"/>
    <path class="cls-1" d="M57.37,140.44c.23.27.59.58.62.62.06.08.75,1.66.83,1.87.05.13.18.51.21.62.25.98.25,1.25.6,2.24.16.43.19,1.03.23,1.5.41.15.54-.36.62-.62.08.04.15.19.21.21.04.65-.51,1.08-.42,1.75.01.09.77,1.51.84,1.57.36.32.35-.07.42-.3.26-.84.48-1.73.62-2.6.21.02.42-.01.62,0-.17.52-.79,2.64-.82,3.04s.35,1.98.82,1.53c.1-.09.73-2.15.83-2.49.18-.01.31.17.42.21l-.61,2.68c1.97.9,1.43-.73,2.06-2.06.11.03.29-.02.42,0l-.42,2.49,2.49-.21c.07.12.33.5.42.62-2.12.38-4.25.39-6.09-.87-4.35-2.96-2.11-10.74-8.78-14.07-4.78-2.38-8.52-.1-12.75,2.05,0-.06-.2-.25-.21-.62,1.82-.79,3.43-2.08,5.36-2.64,4.48-1.31,8.48,0,11.47,3.47Z"/>
    <path class="cls-1" d="M86.04,143.56c.24.12.59.19.62.21.1.06,1.4,1.21,1.66,1.45.13.13.28.28.42.42.79.79,1.7,1.98,2.29,2.91.33.07.22-.42.21-.62.22.01.47-.19.62-.21-.17,1.41.45,2.42,1.76,2.91l-.31-2.91c.06,0,.26-.23.42-.21.08.48.67,3.53.83,3.64.21.15.76.1,1.04.31-.1-.9-.27-1.8-.41-2.7.23-.11.58.21.62.21.07.36.33,2.4.42,2.48.18.18,1.32-.12,1.66-.2l-.62-2.49c.1-.02.37-.31.62-.21.13.83.29,1.66.42,2.49.24.21,2.18-.93,2.28-1.45.33.19.58.39.62.42-2.53,2.53-6.11,2.78-8.94.52-2.89-2.31-3.91-5.49-7.94-6.81-6.25-2.06-10.2,1.81-13.25,6.71-.03-.04-.3.1-.62-.62,1.59-1.58,2.54-3.64,4.36-5.09,3.09-2.47,7.69-2.92,11.22-1.14Z"/>
    <path class="cls-1" d="M84.17,6.87c.09.16.14.29.21.42-2.62,5.11-6.97,8.66-13.1,7.18-.37-.09-1.76-.58-2.07-.74-.04-.02-.38-.26-.62-.42-.31-.2-1.35-.99-1.66-1.25-.03-.02.06-.27-.05-.37-.16-.14-.5,0-.57-.04-.02-.01-.04-.34-.2-.52-.74-.79-1.38-1.67-2.19-2.39-.02.24.07.56.11.83h-.62c-.12-1.43-.27-2.38-1.76-2.91l.31,2.91s.09.58-.42.42c-.08-.53-.6-3.59-.72-3.74-.21-.27-.83-.2-1.14-.41.07.91.28,1.8.41,2.7h-.62c-.19-.75-.18-1.69-.4-2.4s-1.18-.13-1.67-.09l.42,2.49s.09.58-.42.42c-.15-.9-.33-1.8-.42-2.7-.98-.03-1.61.92-2.49,1.25-.44-.3-.39-.4-.42-.42.69-.46,1.37-.96,2.14-1.28,6.64-2.74,8.49,4.51,13.16,7.06s9.13,1.03,12.43-2.87c.85-1,1.4-2.26,2.39-3.12Z"/>
    <path class="cls-1" d="M129.45,132.34c-.62,1.95-3.09,4.27-5.11,4.55-4.71.66-8.15-3.71-13.84-2.41-5.99,1.37-7.28,6.66-8.06,11.99-.27-.17-.36-.23-.62-.42.62-3.24.9-6.42,3.12-9.03,1.71-2.01,5.25-3.71,7.89-3.64.03,0,.3.19.62.21.57.04,1.82.1,2.29.21.07.02.25.23.42.21l3.64,1.66-.11-.83c.06-.08.15-.13.21-.21.97,1.04,1.48,1.82,3.12,1.66l-1.87-2.49c.07-.05.13-.31.21-.42.01.02.28-.04.42.15.28.38,1.85,2.73,2.02,2.77.34.08,1.02-.08,1.31-.32-.61-.68-1.11-1.46-1.66-2.18.25-.1.61-.1.83-.21.09.31.97,1.99,1.06,2.05.36.26,1.63-.53,1.64-.7,0-.13-1.42-1.71-1.66-1.97.04-.03.07-.34.21-.42.19.25,1.8,1.89,1.95,1.86.35-.06,1.35-1.8,1.37-2.27.32.03.59.21.62.21Z"/>
    <path class="cls-1" d="M97.46,16.01c.11.16.35.54.42.62-2.65.84-5.61.38-7.96-1.08-2.94-1.82-3.97-5.45-5.54-8.27-.07-.12-.11-.26-.21-.42-.63-1.04-.5-.97-1.45-1.87-.11-.11.05-.08-.42-.42-.18-.13-.21-.35-.61-.52-2.91-1.26-2.16.62-1.88,2.81-.45.05-1.16-.19-1.45.21-.21,0-.42,0-.62,0h-.62c-.04-1.03.03-2.08,0-3.12-.08-.08-1.13.11-1.22.24-.1.16-.06,3.19-.03,3.71l-1.25.42c-.21,0-.42,0-.62,0h-.62c-.02-.41.01-.83,0-1.25-.13-.18-2.06,3.35-2.08,3.74-.47-.2-.41-.28-.62-.42,2.09-3.77,4-8.13,9.19-7.42,5.9.8,5.46,6.71,8.57,10.34,2.37,2.76,5.54,3.4,9.04,2.7ZM79.18,3.54c-2.58-.37-1.4,1.27-1.46,2.91,2.18.4,1.3-1.48,1.46-2.91ZM73.99,7.7c1.94.36,1.08-1.67,1.24-2.91-1.22.72-1.41,1.53-1.24,2.91Z"/>
    <path class="cls-1" d="M52.8,10.82c.23.16.34.2.62.42-.75,6.43-3.7,12.46-11.01,12.46-.27,0-.56.02-.83,0-.66-.05-1.43-.25-2.08-.42-.18-.04-.46.05-.62,0-.7-.21-1.8-.93-2.65-1.2-.35-.11-.92-.3-.47.37-.05-.02-.6-.02-.62,0-.84-1.18-1.47-1.36-2.91-1.45l1.66,2.49c-.07.05-.13.31-.21.42-.3-.41-2.04-2.89-2.22-2.92-.29-.06-1.01.17-1.31.32.4.81,1.4,1.44,1.45,2.39-.11-.02-.32-.02-.42,0-.5-.46-1.26-2.21-1.92-2.05-.21.05-1.04.6-.98.89.03.12,1.39,1.55,1.66,1.78-.05.04-.07.5-.21.62-.18-.23-1.26-1.43-1.44-1.57-1.13-.87-1.4.96-1.88,1.78-.03,0-.5,0-.62,0,.51-1.75,1.81-3.34,3.45-4.13,5.43-2.59,10.48,4.41,17.54.92,4.44-2.2,5.17-6.7,6.02-11.12Z"/>
    <path class="cls-1" d="M32.65,125.28c.04.23.19.49.21.62.07.65.04,1.61,0,2.29-.01.21.02.42,0,.62-.06.6-.83,3.41-.62,3.74.16.03.32-.21.41-.21.32,0,.29.14.42.21-.69.79-1.77,1.98-1.15,3.12.21.38.34.04.52-.11.64-.5,1.1-1.37,1.66-1.97.06.05.33.05.42.21-.26.27-.77,1.24-1.14,1.66-.91,1.05-2.14,1.06-.63,2.49.45-.76,1.23-1.28,1.77-1.87.08.11.12.33.21.42-.72,1-2.44,2.09-.55,2.89l1.59-1.65s.34.07.42.21c-.5.59-.99,1.34-1.45,1.97.08.36,2.02.93,2.49.94,0,.03.17.33.21.62-2.71-.17-5.07-2.02-5.87-4.62-1.48-4.77,2.62-8.56-.61-14.35-.42-.75-2.71-3.15-2.66-3.36.18-.77.52.09.72.31,1.92,2.2,3.02,2.5,3.65,5.81Z"/>
    <path class="cls-1" d="M26.83,28.68c2.36,6.22,2.34,13.3-4.36,16.62-.08.04-.4.12-.62.21-.74.3-1.3.45-2.08.62-.25.06-.55.2-.62.21-.88.14-2.76.04-3.39.24-.59.19-.39.61.07.8-.07.07-.15.13-.21.21-1.2-.68-2.32-1.06-3.53-.1l2.49,1.35c-.04.08.03.29,0,.42-.11-.06-.49-.03-.76-.16-1.11-.54-2.62-1.96-3.39-.57l2.07,1.35c.16.52-.39.39-.42.42-1.21-.96-2.62-2.07-2.9.2l2.28,1.05c-.03.12.02.28,0,.42-.13-.07-1.89-.75-2.03-.79-1.3-.31-.78,1.53-.88,2.45-.2.07-.45.13-.62.21-.21-1.97.23-3.55,1.46-5.08,3.82-4.79,11.37-.73,16.29-6.98,3.34-4.25,1.69-8.4.54-13.07.2.01.42-.03.62,0Z"/>
    <path class="cls-1" d="M138.39,55.89c-.06.2-.18.5-.21.62-3.05-1.84-4.47-5.55-4.15-9.03.25-2.78,1.99-5.31,3.11-7.79.11-.24.22-.28.42-.83.36-1.05.39-1.11.42-2.29,0-.18.04-.09,0-.42-.13-1.09-.44-1.7-.83-2.7-.12-.09-2.03,1.54-2.31,1.75-.19.15-.55.08-.6.12-.08-.15-.36-.15-.42-.21-.29-.26-.44-.86-1.04-.83.04-.07-.03-.29,0-.42.03-.03.07-.43.29-.63.66-.58,1.44-1.04,1.99-1.76-1.48-1.22-2.16.4-3.22,1.35-.23.2-.59.29-.72.41-.15-.14-.53-.14-.62-.21-.16-.12-.95-.75-1.04-.83-.05-.04-.07-.5-.21-.62.28-.25.61-.53.83-.83l-4.15.62c-.04-.17.03-.43,0-.62,4.05-.82,8.42-1.88,11.3,1.89,4.34,5.67-1.99,9.45-2.55,14.86-.36,3.43,1.01,6.33,3.71,8.39ZM133.19,30.76c-1.38-.43-2.23-.22-3.11.93l1.11.92,2-1.85ZM136.49,33.22c.29-.49-.61-1.1-.91-1.42l-2.18,1.97c.28.21.74.96,1.1.91.12-.02,1.92-1.35,1.98-1.45Z"/>
    <path class="cls-1" d="M147.32,104.3c-.12,3.44-2.07,6.5-5.57,7.21-4.95,1-8.7-.19-12.42,4.31-1.13,1.36-1.86,3.62-1.96,5.4-.15,2.67,1.09,5.02,1.46,7.59-.26-.03-.45-.17-.62-.21-1.4-4.3-2.48-8.31.12-12.45.75-1.19,2.8-3.14,4.03-3.76.11-.05.55-.1.83-.21.8-.31,1.2-.48,2.08-.62.19-.03.43.03.62,0,1.24-.18,2.49-.3,3.74-.42l-.42-.62c.05-.08.16-.14.21-.21,1.17.45,2.19,1.09,3.32.1l-2.49-1.35c.06-.07.05-.33.21-.42.22.12.99.27,1.46.51.68.35,1.04,1.06,1.92.91,2.13-.38-.41-1.29-.88-1.54-.25-.14-.37-.48-.42-.5.04-.23.35-.32.42-.42.4.5,1.93,1.41,2.4,1.06,1.53-1.17-1.01-1.83-1.77-2.31.04-.1-.02-.29,0-.42.1.05.37,0,.6.12.4.2,1.73,1.16,2.09.92l.21-2.49c.28-.09.75-.17.83-.21Z"/>
    <path class="cls-1" d="M144.62,87.26c3.68,2.74,6.93,5.7,5.02,10.74-2.01,5.3-7.93,3.66-12.02,5.84-2.97,1.59-4.73,4.99-4.43,8.35-.29.11-.73.15-.83.21-.11-4.23,2.16-8.2,6.18-9.71,1.82-.68,3.79-.85,5.66-1.3.32-.08.49-.11.83-.21.73-.22,1.41-.38,2.08-.83.43-.29.35-.56.42-.62.08-.07.42-.04.72-.42.22-.28.96-1.58.73-1.86-1.04-.21-2.07-.44-3.11-.63.02-.2-.03-.42,0-.62.06-.46.13-1.01.21-1.45.02-.1.31-.37.21-.62,1.1.21,2.17.65,3.32.62l-.2-1.11-3.75-.97v-.42c0-.47-.05-1,0-1.45.02-.15.22-.41.21-.62.54.11,1.1.29,1.66.31l-3.32-2.81c.31-.4.28-.27.42-.42ZM149.19,92.87c-.48-1.44-1.41-1.94-2.91-1.87-.45,2.38,1.3,1.45,2.91,1.87ZM149.6,95.37l-2.9-.41c.08.31-.32,1.33-.21,1.45.1.11,2.49.39,2.91.62l.21-1.66Z"/>
    <path class="cls-1" d="M68.59,13.31c.25.16.58.39.62.42-2.96,2.9-7.14,3.16-10.78,1.32-1.88-.95-3.36-2.56-5.01-3.82-.29-.22-.39-.26-.62-.42-.94-.63-.9-.69-2.08-1.04-.34-.1-.4-.15-.83-.21-.17-.02-.33-.2-.69-.19-.62.02-1.35.4-2.01.4.6.94.95,2.16,1.45,3.11-.55-.17-.38.39-.42.42-.3.24-.7.29-1.04.42-.25.09-.53.03-.62.42-.46-.86-1.28-1.66-1.46-2.7-.21-.16-.86.46-.94.63-.09.18.89,2.47,1.09,2.85.15.29.34.64.47.88-.23.04-.32.34-.42.42-.2.14-.73.57-.83.62s-.5-.07-.62.21l-.83-1.04c-.41,1.4-.13,2.91-.21,4.36-.5.03-.69-.19-.83-.21.62-4.15-.29-8.1,4.02-10.42,6.62-3.56,9.38,4.36,15.04,5.59,2.5.54,5.73-.1,7.53-2.02ZM46.57,13.31l1.43-.72-1.23-2.6c-2.4.89-.61,1.7-.2,3.32ZM43.86,12.89c-1.1.43-.66,3.15.12,3.32.16.04,1.07-.58,1.11-.75.11-.46-1.23-1.95-1.23-2.58Z"/>
    <path class="cls-1" d="M141.71,57.14c1.58.62,3.45.86,4.99,1.56,2.47,1.13,4.31,3.65,4.37,6.43.13,5.44-5.28,6.47-8.11,9.98-2.2,2.74-2.57,6.28-1.04,9.45-.06.05-.39.39-.42.42-2.24-3.23-1.23-7.87,1.24-10.7,1.4-1.6,3.36-2.69,4.99-4.05.62-.52.17-.2.42-.62.06-.1,1.14-.67,1.66-1.66.16-.31.13-.39.21-.62.28-.86.58-1.5.41-2.49-1.07.32-2.54.22-3.53.42.1-.29-.16-.47-.21-.62-.12-.35-.13-.7-.21-1.04-.05-.19-.21-.4-.21-.62.56-.12,2.86-.56,3.11-.73.56-.39-.35-1.15-.9-1.13-.65.02-2.66.62-3.46.83.01-.17-.18-.32-.21-.42-.13-.49-.29-.97-.42-1.45-.04-.17.03-.43,0-.62.4-.09.76-.32,1.25-.21.07-.04-.11-.25-.21-.31-.75-.49-3.18-.83-4.16-1.14.08-.54.4-.57.42-.62ZM148.36,60.26c-.06-.07-1.38-.81-1.57-.83-.31-.02-1.69.23-1.75.52l.41,1.34c.76-.47,2.07-.34,2.78-.63.21-.09.17-.35.12-.41ZM150,62.77c-.29-.2-2.57.54-3.1.61.14.47.11,1.43.71,1.44.17,0,2.52-.53,2.59-.64.13-.19-.08-1.33-.2-1.41Z"/>
    <path class="cls-1" d="M134.44,115.52c1.57,4.09,4.04,8.19.22,11.95-4.39,4.31-9.24.02-14.24.51-2.97.29-6.05,2.76-6.96,5.61-.33-.02-.59-.21-.62-.21,1.35-4.3,5.54-6.34,9.86-6.02,1.89.14,3.68.88,5.51,1.24.17.04.36.18.62.21.86.1,1.49-.05,2.29-.21.32-.06.4-.13.62-.21.92-.31,1.62-.49,2.28-1.35-.82-.62-1.74-1.8-2.49-2.39.07-.06.14-.14.21-.21.57-.59.53-.97.83-1.45.02-.03.34-.07.42-.21.84.63,1.79,1.17,2.6,1.86.2-.01.48-.97.45-1.15s-2.65-2.09-3.05-2.38c.02-.23.11-.42.21-.62.15-.31.47-1.01.62-1.25.05-.07.31-.13.42-.21.18.12,1.03.66,1.25.52l-1.66-3.84c.22-.11.42-.13.62-.21ZM136.1,122.58c.42-.84-1.11-3.09-1.87-2.61-.13.09-.72,1-.62,1.15.08.12,2.39,1.58,2.49,1.46ZM132.99,123.62c-.05.04-.63,1.05-.62,1.11.04.24,1.98,1.82,2.15,1.79.2-.12.94-1.06.94-1.14,0-.15-2.25-1.91-2.46-1.76Z"/>
    <path class="cls-1" d="M113.04,137.12c-.23,3.88.23,8.19-3.74,10.29-7.05,3.74-9.87-4.91-15.95-5.66-2.33-.29-4.91.54-6.7,2.02-.03-.02-.38-.09-.62-.21,1.74-2.01,4.97-2.78,7.56-2.47,3.29.39,5.7,3.14,8.23,4.96.26.19.36.25.62.42,1.02.64,1,.76,2.29,1.04.07.02.21.19.42.21.42.04,2.66.02,2.7-.52.01-.17-1.24-2.62-1.45-3.01.18,0,.3-.16.42-.21.45-.2.82-.43,1.25-.62.17-.08.44-.07.62-.21.5.95,1.15,1.86,1.46,2.91.13.1.68-.61.75-.83.18-.59-1.2-3.04-1.58-3.74.41.07.47-.3.62-.42.41-.31.66-.4,1.04-.83.06-.07.14-.13.21-.21l1.04,1.25.21-4.15c.21,0,.42-.02.62,0ZM111.38,141.07c-2.21.28-.58,2.32.21,3.32.55-1.41.44-1.99-.21-3.32ZM108.27,147.08c2.59-.38.7-1.84.19-3.32-.2.24-1.25.65-1.25.74.01.72.95,1.8,1.06,2.57Z"/>
    <path class="cls-1" d="M22.47,45.3c.39,2.1-.49,4.77-1.7,6.51-2.72,3.92-6.09,3.64-10.14,4.71-.28.08-.39.13-.62.21-.67.23-1.51.62-2.08,1.04-.42.31-.34.55-.42.62-.02.02-.27-.04-.42.15-.43.54-1.56,2.09-.51,2.34.85.2,1.99.48,2.79.63-.02.13.02.29,0,.42-.09.49-.13.96-.21,1.45-.02.12-.16.28-.21.42-1.04-.16-2.26-.11-3.32-.41-.05.05.12.96.2,1.1.25.4,3.16.68,3.74.77-.02.19.21.52.21.62-.01.31-.15,1.1-.21,1.45-.01.07-.22.26-.21.42-.37-.07-1.06-.12-1.45-.1l3.12,2.6c-.26.3-.17.19-.42.42-3.44-2.86-7.09-5.52-5.09-10.59s7.59-3.78,11.67-5.99c2.98-1.61,4.91-5.16,4.64-8.56.22-.09.55-.17.62-.21ZM8.54,61.72c-.09-.09-2.44-.44-2.56-.41-.4.11-.42.98-.35,1.3.1.42,2.46.41,2.92.76-.06-.32.1-1.54,0-1.65ZM9.17,65.66l-2.91-.42c.46,1.43,1.17,1.99,2.7,1.87l.21-1.45Z"/>
    <path class="cls-1" d="M145.03,101.18c-.34.1-.52.13-.83.21-3.44-3.64-5.98-6.98-4.72-12.3.29-1.22,1.19-3.17,2.02-4.11.02-.03.36-.36.42-.42.16-.15,1.57-1.39,1.66-1.45.04-.02.36-.05.62-.21.32-.19,3.5-1.58,3.32-1.87-.01-.02-.3.02-.41-.21-.26-.52,0-.7,0-.83-.12.61.33.42.72.42,1.02,0,2.01-.21,2.39-1.25l-3.12-.21v-.62c.72.06,3.54.41,3.91.17.05-.03.54-.95.25-1.11-.44-.25-1.86-.06-2.5-.1-.01-.22.19-.47.21-.62,1.68-.25,3.28,1.19,2.91-1.46h-2.91c.01-.11.17-.28.21-.41.04,0,.23-.2.5-.22.73-.03,1.47.04,2.2,0-.04-.9-.41-1.72-.83-2.49.17-.17.5-.48.62-.62.7,2.11,1.17,3.58.52,5.82-1.62,5.54-10.37,4.55-12.1,12.21-1.14,5.03,1.7,8.32,4.93,11.68Z"/>
    <path class="cls-1" d="M42.41,23.7c-1.59,4.61-5.73,6.7-10.49,6.23-1.62-.16-3.54-1.05-5.09-1.24-.2-.03-.42.01-.62,0-.93-.05-1.44.05-2.29.21-.31.06-.41.14-.62.21-1.12.37-1.72.52-2.49,1.56.72.53,1.46,1.03,2.18,1.56.25.19.41.54.52.62-.17.09-.15.32-.21.42-.22.35-.57,1.2-.62,1.25-.05.04-.5-.04-.62.21-.84-.57-1.79-1.03-2.6-1.66-1.05,1.46,1.09,2.16,2.08,2.91.24.18.41.54.52.62-.03.12.04.33,0,.42-.19.41-.57.92-.83,1.45-.03.07-.16.13-.21.21-.24-.17-.9-.27-1.14-.62-.52-.17,1.46,3.47,1.35,3.74-.14.07-.26.14-.42.21-1.88-3.83-3.87-7.45-.83-11.32,4.28-5.44,9.24-.93,14.43-1.36,3.11-.26,6.31-2.58,7.17-5.61.27.02.56,0,.83,0ZM20.2,31.19c0,.38-.7.95-.55,1.24.17.35,1.91,1.24,2.3,1.65,1.76-1.53-.48-2.25-1.75-2.88ZM18.94,34.91c-.04,1.47.46,2.27,1.76,2.91,1.65-1.53-.68-2.02-1.76-2.91Z"/>
    <path class="cls-1" d="M13.95,72.72c1.64,2.65,1.37,6.39-.24,9-1.47,2.37-3.97,3.74-5.99,5.54-.26.23-.28.28-.42.42-.74.71-.86.84-1.45,1.66-.04.06-.13-.24-.42.42-.38.86-.48,1.77-.41,2.7,1.01-.28,2.38-.22,3.32-.42-.02.18.17.31.21.42.17.5.21.93.21,1.45,0,.14,0,.28,0,.42-.09.02-.33.26-.61.32-.77.18-1.55.28-2.3.51.1.76.33,1.08,1.11,1.03.61-.04,2.79-.46,3.46-.61v.21c-.05.54.34.94.42,1.45.03.2-.02.42,0,.62-.27.08-.95.31-1.04.62l3.74,1.04c-.05.07.04.45,0,.62-4.11-1.13-8.79-2.28-9.15-7.37-.46-6.57,6.89-7.2,9.19-12.22,1.05-2.31,1.18-5.26-.25-7.41.03-.03-.07-.28.04-.37.16-.14.49,0,.58-.04ZM8.12,94.11c.11-.12.11-1.27-.33-1.42-.29-.1-2.68.29-2.78.39-.05.06.22,1.32.55,1.43.17.06,2.47-.31,2.56-.41ZM9.98,96.22c-.26-.18-1.92.29-2.37.39-.29.06-.6-.18-.51.31,1.11,1.11,1.93,1.02,3.32.52-.18-.23-.35-1.15-.44-1.22Z"/>
    <path class="cls-1" d="M100.58,14.14c3.3-2.29,6.19-5.25,10.53-3.36,1.47.64,3.72,3.16,3.96,4.76.62,4.04-1.01,7.8,1.42,11.46,1.41,2.13,3.43,3.43,5.9,3.97.03.2-.04.44,0,.62-4.98-.69-7.94-5.04-8.1-9.87-.05-1.44.24-2.93.21-4.46,0-.29.06-.33,0-.83-.11-.87-.29-1.3-.62-2.08-.08-.18-.08-.41-.21-.62-.45-.71-1.27-1.4-1.98-1.86-.16.01-1.33,2.47-1.56,2.9-.08-.2-.25-.17-.42-.21-.47-.12-1.03-.19-1.45-.42-.07-.04-.2-.39-.42-.42.4-.97.73-1.98,1.25-2.91h-1.32c-.33,1.12-1.19,2.32-1.59,3.32-.2-.02-.42.03-.62,0-.37-.05-.89-.13-1.25-.21-.08-.02-.25-.22-.42-.21.06-.15.44-1.48-.1-1.24-.79.34-1.93,1.99-3.01,2.08-.11-.16-.14-.29-.21-.42ZM107.02,11.02c-1.65.12-2.23.65-2.49,2.28,1.93.78,1.94-.9,2.49-2.28ZM108.69,13.71c1.18.69,1.93-.63,2.18-1.65.24-.96-1.15-1.18-1.35-1.04-.11.08-.96,2.53-.83,2.68Z"/>
    <path class="cls-1" d="M114.5,16.42c.06.5,0,.54,0,.83-3.76,2.44-7.96,4.45-12.44,2.57-1.3-.55-3.3-2.09-4.18-3.2-.06-.08-.31-.46-.42-.62-.29-.43-.85-1.41-1.04-1.87-.07-.18-.13-.42-.21-.62-.44-1.2-.67-2.51-1.04-3.74l-.62,1.45c.11-.61-.2-.33-.42-.42-.48-.18-.96-.32-1.45-.42,0-.1-.17-.29-.21-.42.13-.45.85-3.6.8-3.8-.07-.25-.82-.97-1.01-.77.08.82-.43,1.57-.62,2.28-.13-.02-.29.03-.42,0-.13-.81,1.09-2.39.27-2.87-1.65-.98-1.19,1.16-1.73,2.25-.1-.04-.29.02-.42,0,.19-.74.23-1.9.42-2.7l-2.49.21c-.53.09-.35-.33-.42-.42,3.61-1.29,7,.48,8.41,3.95,1.3,3.2,1.3,6.41,4.05,9.04,4.69,4.51,10.46,2.47,15.17-.74ZM94.34,10.19c.45-1.07.76-2.66-.62-3.12-.16,1.37-1.57,2.93.62,3.12Z"/>
    <path class="cls-1" d="M40.54,139.61c0,.38.2.57.21.62.08.84.07,1.47.42,2.29.08.2.29.42.42.62.46.77,1.09,1.75,2.07,1.87.31-.87.71-1.72,1.09-2.55.1-.22.35-.32.36-.35.12.02.38-.04.42,0,.03.03-.09.31.15.41.33.14.93.12,1.3.21-.01.17,0,.39.21.42-.44.98-.73,2.05-1.25,3.01,0,.16,1.14.16,1.32.12s1.41-2.91,1.59-3.33c.21,0,.42-.01.62,0,.45.03,1.03.09,1.45.21.1.03.25.22.42.21-.19.45-.37.98-.52,1.45l3.43-2.28c.05.06.08-.13.42.42-3.87,2.63-7.59,5.98-12.15,2.28-3.83-3.11-2.07-6.89-2.4-10.9s-3.13-7.6-7.27-8.42c-.01-.13-.16-.4-.21-.62,4.29.35,7.73,4.47,8.1,8.62.17,1.91-.23,3.95-.2,5.71ZM44.07,145.63s1.2.36,1.25.33c.21-.13,1.28-2.46,1.16-2.62-.24-.18-1.16-.53-1.35-.39-.12.09-1.17,2.56-1.06,2.68ZM48.02,146.05c1.23-.24,1.92-.46,2.33-1.72.32-.97-.53-.73-1.29-.98l-1.04,2.7Z"/>
    <path class="cls-1" d="M70.46,149.79c.32.73.6.58.62.62.59.89.49,1.08,1.45,1.87.15.13.31.14.42.21.8.53,1.36,1.08,2.49,1.04-.02-1.04.03-2.08,0-3.12.25.1.53-.19.62-.21.25-.04.56.01.83,0,.07,0,.14,0,.21,0h.83c.02,1.12-.03,2.21.21,3.32,2.02-.24,1.12-2.91,1.04-4.36.4.19.85-.18,1.04-.21.31-.04.71,0,1.04,0h.42c.02.22.14,1.2.41,1.24l1.87-3.53c.15.07.27.13.42.21-1.82,4.78-5.49,9.43-11.15,6.68-3.41-1.65-3.77-5.78-5.67-8.66-2.17-3.3-5.66-4.7-9.56-3.84-.03-.04-.39-.35-.62-.62,4.94-1.23,9.12.85,11.46,5.26.7,1.32,1.04,2.74,1.63,4.09ZM79.8,152.49c1.52-.48,1.59-1.73,1.45-3.12-.28.32-1.45.13-1.45.21v2.91ZM76.06,153.74c2.23.43,1.27-1.66,1.45-3.12-.28.32-1.45.13-1.45.21v2.91Z"/>
    <path class="cls-1" d="M10.63,56.52c3.6,3.6,6.53,6.46,5.26,12.01-.16.72-1.44,3.95-1.94,4.19-.09.04-.42-.09-.58.04-.11.1-.02.35-.04.37-.42.39-1.23,1.16-1.66,1.45-.08.06-.27.12-.42.21-.28.18-3.55,1.63-3.32,1.87.13.02.29-.02.42,0-.05.46.19,1.16-.21,1.45-.04-.2.06-.78,0-.83-.33-.32-2.88.16-2.91,1.14,0,.15,2.62.26,2.91-.1.02.14.37.49.21.83-.63.21-3.48-.25-3.74-.12-.22.11-.78,1.01-.62,1.15.75.09,1.65-.22,2.28.21,0,.14,0,.28,0,.42-.71.13-1.97-.18-2.57-.01-.21.06-.41,1.4-.34,1.47l2.7.21c-.02.13.01.28,0,.42-.83-.03-1.67.02-2.49,0-.1.91.19,1.72.62,2.49.21.76-.38.59-.42.62-.83-1.86-1.24-3.17-.73-5.2,1.52-6.08,11.23-5.03,12.31-13.03.7-5.2-2.13-7.62-5.35-11.06.23-.08.34-.13.62-.21Z"/>
    <path class="cls-1" d="M18.11,116.97c2.88.09,5.6-.37,8.36.64.05.02.59.48.69.54.06.03,1.34.22.93.69s-1.93-.61-2.44-.77c-2.41-.78-5.25-.5-7.73-.26.08-.23.06-.5.21-.83Z"/>
    <path class="cls-1" d="M77.1,150.21c-.07,0-.14,0-.21,0l.1-.2.1.2Z"/>
  </g>
</svg>