<?xml version="1.0" encoding="UTF-8"?>
<svg id="Layer_1" data-name="Layer 1" xmlns="http://www.w3.org/2000/svg" viewBox="0 0 397.17 178.81">
  <defs>
    <style>
      .cls-1 {
        fill: #231f20;
      }

      .cls-2 {
        fill: #f1f1f0;
      }

      .cls-3 {
        fill: #f1f2f2;
      }

      .cls-4 {
        fill: #fff;
      }

      .cls-5 {
        fill: none;
        stroke: #231f20;
        stroke-miterlimit: 10;
        stroke-width: .5px;
      }

      .cls-6 {
        fill: #f7f7f7;
      }
    </style>
  </defs>
  <rect class="cls-4" width="397.17" height="178.81"/>
  <g>
    <g>
      <path class="cls-1" d="M74.37,122.52c-6.3-2.94-12.23-6.65-15.76-12.89-5.57-9.85-2.49-22.89,3.08-32.06-3.32-4.03-4.39-9-1.56-13.67,3.79-6.25,13.62-6.96,17.8-.84,9.93-4.06,21.17-4.32,31.07-.02,1.57-1.24,2.45-2.52,4.42-3.33,5.63-2.31,12.01.01,14.43,5.63,1.97,4.57.76,8.56-2.3,12.23,4.77,7.71,7.27,17.31,5.31,26.34-1.99,9.19-9.87,14.79-17.81,18.62-.43-.14-1.27-.66-1.27-1.08,14.22-6.25,21.09-16.43,17.16-32.25-8.81-35.43-57.7-37.41-69.59-3.27-5.77,16.57.29,28.37,15.73,35.34l-.72,1.27Z"/>
      <path class="cls-1" d="M111.79,121.44c0,.42.83.94,1.27,1.08-12.83,6.18-25.78,6.02-38.68,0l.72-1.27c11.89,5.37,24.77,5.43,36.7.18Z"/>
    </g>
    <path class="cls-3" d="M111.79,121.44c-11.93,5.25-24.8,5.19-36.7-.18-15.44-6.97-21.5-18.78-15.73-35.34,11.89-34.14,60.78-32.16,69.59,3.27,3.93,15.82-2.94,26-17.16,32.25Z"/>
    <path class="cls-6" d="M85.03,92.52c.37.19,1.75,1.01,1.97.88.34-.94,3.42-4.6,3.25-5.28-.11-.44-2.37-1.33-2.51-1.21,0,.37-.78,2.32-.99,2.33l-13.71-7.36-3.74,2.05c-.09.37.15.24.36.36.5.28,3.75,1.77,3.8,2-1.32,1.75-3.1,3.21-3.89,5.33-1.55,4.18.59,9.25,5.29,9.89,2.73.37,3.94-.31,5.36-2.5.83-1.28,3.06-4.88,3.54-6.13l1.27-.36Z"/>
    <path class="cls-6" d="M103.29,92.7c1.42,2.43,3.3,7.6,6.05,8.51,3.69,1.21,7.94-1.7,8.4-5.54.49-4.18-1.75-6.52-4.31-9.38.02-.21,3.1-1.75,3.56-2.04.17-.11.48-.21.41-.49-.05-.22-3.72-1.89-4.04-1.86l-12.76,7.1-.54.08c-.04-.36-.75-2.13-1-2.15-.38.35-2.5,1.01-2.43,1.49.76.78,2.58,4.5,3.24,4.91.71.44,2.21-1.09,2.97-1.19.08.22.41.46.46.55Z"/>
    <path class="cls-6" d="M94.28,111.88c1.74-.72,7-2.82,7-5,0-1.09-1.24-1.96-2.23-2.08-2.3-.28-5.53.05-7.97.01-1.51-.02-3.86-.81-4.76,1.01s.02,2.82,1.49,3.72c.71.43,4.48,1.95,4.61,2.17.1.16.18,2.19-.27,2.29-2.38.83-8.08,2.13-9.4,4.34-1.73,2.92,2.07,2.26,3.64,2.38,4.72.35,9.38.68,14.11.89,1.33.06,3.03.38,4.33.38,3.29,0,.31-5.89-.74-7.23-2.87-3.65-5.93-2.53-9.84-1.46l.02-1.42Z"/>
    <path class="cls-1" d="M103.29,92.7s.3.03.45.17c1.42,1.41,3.04,1.84,4.74.43,1.04-.86,1.57-4.33.48-4.57-.31-.07-4.78,2.8-5.56,3.04-.19.12-.16.86-.12.92-.06-.1-.39-.33-.46-.55-.76.11-2.26,1.63-2.97,1.19-.66-.41-2.48-4.14-3.24-4.91-.08-.48,2.04-1.14,2.43-1.49.25.02.96,1.78,1,2.15l.54-.08,12.76-7.1c.32-.04,3.99,1.64,4.04,1.86.07.28-.24.37-.41.49-.45.29-3.54,1.83-3.56,2.04,2.56,2.86,4.81,5.21,4.31,9.38-.45,3.84-4.71,6.76-8.4,5.54-2.74-.9-4.63-6.08-6.05-8.51Z"/>
    <path class="cls-6" d="M83.77,92.52c-1.44,1.23-3.02,2.06-4.87.98s-1.68-4.88-.83-4.94c.34-.03,5.13,2.99,5.85,3.35,0,.22-.11.41-.15.61Z"/>
    <path class="cls-1" d="M83.77,92.88c-.48,1.25-2.71,4.85-3.54,6.13-1.42,2.19-2.63,2.87-5.36,2.5-4.69-.64-6.83-5.71-5.29-9.89.78-2.12,2.56-3.58,3.89-5.33-.05-.22-3.3-1.72-3.8-2-.2-.11-.44.01-.36-.36l3.74-2.05,13.71,7.36c.21-.01.99-1.97.99-2.33.14-.12,2.39.77,2.51,1.21.17.67-2.92,4.34-3.25,5.28-.22.13-1.59-.69-1.97-.88-.19-.1-.62-.53-.82-.51-.12.01-.3.39-.45.51.04-.2.16-.4.15-.61-.72-.36-5.51-3.37-5.85-3.35-.85.06-1.03,3.85.83,4.94s3.43.25,4.87-.98c-.02.11.03.28,0,.36Z"/>
    <path class="cls-4" d="M103.29,92.7c-.04-.07-.07-.8.12-.92.78-.24,5.25-3.11,5.56-3.04,1.09.24.56,3.7-.48,4.57-1.7,1.41-3.32.98-4.74-.43-.15-.15-.44-.15-.45-.17Z"/>
    <g>
      <path class="cls-1" d="M94.28,111.88l-.02,1.42c3.91-1.07,6.97-2.19,9.84,1.46,1.05,1.34,4.03,7.24.74,7.23-1.3,0-3-.33-4.33-.38-4.72-.21-9.39-.55-14.11-.89-1.56-.12-5.37.54-3.64-2.38,1.31-2.21,7.02-3.51,9.4-4.34.45-.1.37-2.13.27-2.29-.14-.22-3.9-1.73-4.61-2.17-1.46-.89-2.36-1.96-1.49-3.72s3.26-1.03,4.76-1.01c2.43.04,5.67-.29,7.97-.01.99.12,2.23.99,2.23,2.08,0,2.17-5.26,4.28-7,5ZM88.16,108.19c.89,1.02,3.57.7,2.64-.92s-3.6-.19-2.64.92ZM97.28,106.65c-2.15.21-1.34,3.41,1.2,1.93,1.27-.74-.06-2.04-1.2-1.93ZM99.86,118.73c.46-.4,1.49-3.89,1.42-4.23-.29-1.27-4.84-.26-5.76-.02-2.67.7-5.34,1.92-7.95,2.8l10.84-.91c.11-.51-.21-.94-.32-1.38-.06-.27-.14-.49.23-.41.4.19,1.43,3.49,1.54,4.16ZM104.74,120.17c-.31-2.08-1.4-4.13-3.07-5.42.26,1.48-1.02,3.58-1.08,4.81-.01.21.08.61.27.61h3.89ZM99.5,119.99c.12-.12-.59-2.93-1.02-3.05l-11.34,1.08c.03-.88-2.54.6-2.64.72-.02.02-.07.38.09.36l14.91.9Z"/>
      <path class="cls-2" d="M99.5,119.99l-14.91-.9c-.16.02-.11-.34-.09-.36.1-.12,2.67-1.6,2.64-.72l11.34-1.08c.44.12,1.14,2.94,1.02,3.05Z"/>
      <path class="cls-2" d="M99.86,118.73c-.11-.67-1.14-3.96-1.54-4.16-.38-.07-.3.15-.23.41.11.45.43.87.32,1.38l-10.84.91c2.62-.88,5.28-2.1,7.95-2.8.92-.24,5.47-1.26,5.76.02.08.34-.95,3.83-1.42,4.23Z"/>
      <path class="cls-2" d="M104.74,120.17h-3.89c-.19,0-.28-.4-.27-.61.06-1.24,1.35-3.33,1.08-4.81,1.67,1.29,2.76,3.34,3.07,5.42Z"/>
      <path class="cls-2" d="M97.28,106.65c1.14-.11,2.47,1.18,1.2,1.93-2.54,1.48-3.35-1.72-1.2-1.93Z"/>
      <path class="cls-2" d="M88.16,108.19c-.97-1.11,1.74-2.48,2.64-.92s-1.75,1.94-2.64.92Z"/>
    </g>
    <line class="cls-5" x1="84.14" y1="91.92" x2="83.7" y2="92.79"/>
    <line class="cls-5" x1="103" y1="92.14" x2="103.58" y2="92.97"/>
    <g>
      <path class="cls-1" d="M121.65,42.18c.06.11.24.58.3.74.17.47.22.85.3,1.34.03.2.15.42.15.45.08.9-.06,1.9,0,2.82l.59-.59c.09-.02.23.03.3,0,0,.56.63.65.89.89.03.03.04.24.15.3-.25.28-1.86,2.15-1.88,2.3-.01.1.11.43.18.51.36.45.35-.06.58-.29.29-.31.72-.61.97-.89.09.18.41.12.45.15.08.07.4.88.74.74-.02.08.02.2,0,.3-.03.03-.03.25-.14.37-.41.46-.91.83-1.19,1.41l1.48.6c-.02.17-.15.37-.15.45-1.41-.33-2.6-1.36-3.14-2.72-1.23-3.1.9-6.33-1.61-9.52-3.1-3.94-8.19-2.76-11.27.52-.14-.23-.08.23-.3-.59,1.55-1.01,2.98-2.37,4.86-2.78,2.97-.65,6.33.79,7.75,3.52ZM122.24,49.75c.29.08.29-.12.42-.25.15-.14,1.04-1.1,1.05-1.18.04-.24-.51-.6-.66-.79l-.78.84-.03,1.38ZM123.86,52.25c.47-1.04,1.63-.98.39-2.05-.25.34-1.13.95-1.2,1.32-.05.24.48.94.81.73Z"/>
      <path class="cls-1" d="M49.71,107.01c.23.39.65.76.86,1.14,2.27,4-1.24,5.96-2.01,9.51-.92,4.28,2.37,8.03,6.71,7.9,1.23-.04,2.53-.56,3.78-.6-.02.24-.14.39-.15.45-4.97,1.85-10.88-.39-10.98-6.23,0-.19-.01-.4,0-.59.04-.48.16-1.17.3-1.63.02-.06.11-.18.15-.3.13-.36.34-.85.51-1.19.52-1.07,1.68-1.93-.22-1.03,0-.1.01-.2,0-.3-.05-.43-.37-.74-.45-1.19-.02-.13.02-.3,0-.45.43-.17,2.57-.9,2.65-1.13s0-.55.02-.8l-2.22.74c.03-.09.15-.23.15-.3-.03-.42-.35-.76-.59-1.04-.06-.07-.09-.21-.15-.3.74-.29,1.45-.67,2.22-.89.15-.21-.74-1.24-.89-1.48.22-.37.28-.28.3-.3ZM49.13,110.7c.13.1,1.62-.45,1.7-.58.16-.23-.26-.76-.24-1.04-.32.22-1.56.49-1.72.74-.09.15.21.85.25.88ZM50.6,112.05c-1.03.41-2.47.37-1.63,1.78.99-.33,1.52-.63,1.63-1.78Z"/>
      <path class="cls-1" d="M50.45,119.02c1.69.02,3.4-.54,5.08-.14.12.03.1.25.22.28,1.22.34,1.54.25,2.49,1.34,2.78,3.17.34,6.19.68,9.7.3,3.06,3.04,5.82,6.21,5.58.01.03.25.5.3.59-2.58.13-4.97-1.28-6.2-3.52-1.45-2.62-.68-4.74-.33-7.46,0-.05.13-.2.15-.45.04-.44.05-1.19,0-1.63-.02-.18-.12-.32-.15-.45-.14-.7-.18-1.65-1.09-1.17-.1.05-1.13.88-1.28,1.02-.1-.11-.1-.37-.15-.45.71-.14.94-1.06,1.63-1.19.15-.21-.52-.72-.67-.88l-1.22,1-.34.63c-.14-.09-.35-.11-.45-.3.26-.23.76-.85,1.12-1.19.2-.19.63-.1.23-.52-.6-.63-1.74.79-2.31,1.27-.13.11-.33.11-.37.14-.1-.12-.09-.34-.15-.45.72-.28,1.32-.88,1.78-1.48-.97-.17-1.81-.17-2.23.89-.1-.11-.32-.19-.45-.3.13-.11.33-.43.44-.59l-2.97.15c-.04-.31-.02-.21,0-.45Z"/>
      <path class="cls-1" d="M139.01,59.54c0,.27.15.42.15.45-.04.49-.16,1.17-.3,1.63-.04.13-.1.32-.15.45-.28.78-.87,1.75-1.33,2.45-.19.37.71.1.74.07.12.05.34.17.45.15.07.31.21.59.3.89.03.11,0,.24.15.3-.03.01-.15.25-.33.33-.86.38-2.75.78-2.48,1.9.55-.2,1.43-.39,1.93-.59.05.05.11.09.15.15.26.34.37.71.59,1.04.06.08.09.25.15.3l-2.22.89c-.14.18.77,1.25,1.04,1.33-.1.16-.26.37-.3.45-4.58-4.18,1.46-8.12,1.18-12.53-.15-2.46-2.09-5.06-4.45-5.79-2.18-.68-4.07-.15-6.23.22.01-.14-.02-.3,0-.45,3.86-1.16,8.14-.84,10.26,3.02.76,1.39.71,1.91.72,3.36ZM136.49,66.81c.81-.62,2.57-.51,1.63-1.86-1.01.2-1.55.84-1.63,1.86ZM138.11,68c-.15-.13-1.62.46-1.71.58-.2.28.11.73.09,1.05.25-.15,1.71-.53,1.77-.6.05-.06-.11-.99-.15-1.02Z"/>
      <path class="cls-1" d="M99.7,139.2c.13.13.14.12.3.3-.82,1.74-1.79,3.71-3.42,4.81-2.64,1.78-5.83,1.62-8.29-.36-.16-.13-.43-.28-.45-.3-.13-.12-.78-.88-.89-1.04-.06-.09-.24-.36-.3-.45-.41-.68-.77-1.75-1.04-2.52l-.44.89c-.09-.02-.22.02-.3,0-.26-.08-.71-.32-1.04-.45-.08-.03-.17-.16-.3-.15.1-.35.72-2.69.67-2.82s-.52-.55-.67-.44c-.04.63-.42,1.23-.59,1.78-.15,0-.3.01-.45,0-.32-.03-.71-.19-1.04-.3-.04-.01-.09-.12-.15-.15.21-.66.26-1.56.59-2.22h-1.63c-.02-.08-.11-.35-.15-.45,1.1-.06,2.22.06,3.21.57,3.16,1.61,2.47,7.26,7.24,8.79,4.59,1.47,7.38-1.75,9.13-5.5ZM81.75,137.86s.74.16.89.23c.39-1.04,1.12-1.9-.45-2.16.11.37-.61,1.75-.45,1.93ZM85,139.93c.49-.35.06-2.01-.58-2.21l-.45,2.08c.26-.03.85.26,1.03.14Z"/>
      <path class="cls-1" d="M120.76,131.63c-.05.9.07,1.86,0,2.75-.34,4.49-3.83,7.31-8.31,6.74-.04,0-.51-.12-.59-.15-.21-.06-1.28-.49-1.48-.59-.03-.02-.21-.16-.45-.3-.68-.4-1.42-1.08-2-1.63-.19.23.03.63.07.89-.18-.07-.37.13-.45.15-.2.04-.9.15-1.04.15-.03,0-.28-.22-.45-.15-.15-.95-.11-3.06-1.33-2.97.16.68.18,1.39.3,2.08-.11-.01-.25.14-.3.15-.33.04-.71-.04-1.04,0-.11.01-.29.16-.45.15-.06-.71-.3-1.5-.3-2.23-.55,0-1.05.28-1.48.59-.1-.1-.2-.21-.3-.3,5.03-3.44,7.22,3.31,11.94,3.71,5.38.45,7.77-4.46,7.19-9.19.15.04.29.1.45.15ZM104.28,136.39l-1.03.14c.22.26.24,1.71.3,1.78.05.05.83-.03,1.04,0l-.31-1.92ZM107.56,139.05c-.11-.98-.48-1.63-1.48-1.93.14.29.23,1.86.3,1.93.06.06.97-.04,1.19,0Z"/>
      <path class="cls-1" d="M74.63,37.73c.2.04.4.1.59.15.22.06,1.42.4,1.48.45.02.01-.02.08.3.3.73.49,1.4,1.3,2.15,1.78.18-.17-.04-.53-.08-.74.36.12.27-.28.3-.3.06-.04.96,0,1.19,0h.45c.06.41.36,2.66.47,2.79.05.06.82.21.86.18-.19-.63-.2-1.29-.3-1.93.36.12.27-.28.3-.3.06-.04.84,0,1.04,0h.45c.1.69.18,1.39.3,2.08l1.33-.59c.05.03.3-.07.41.03.08.07.02.25.03.27-.51.35-1.27.76-1.89.85-3.84.6-4.93-2.58-7.82-3.97s-6.06-.69-8.01,1.78c-1.59,2.01-1.28,4.6-1.56,6.97-.14-.04-.3-.24-.45-.3.22-1.41.07-2.74.37-4.16.78-3.79,4.32-6.04,8.09-5.33ZM80.7,39.82c-.08-.07-.82.03-1.03,0-.17,1.19.44,1.53,1.33,2.08-.1-.31-.23-1.99-.3-2.07ZM83.53,40.55s-.84.03-1.04,0c0,.25.09,1.71.15,1.78.05.05.83-.03,1.04,0-.09-.28-.09-1.72-.15-1.78Z"/>
      <path class="cls-1" d="M136.04,115.32c1.5,2.95,2.59,5.9.77,9-.95,1.61-2.38,2.66-4.18,3.16-.16.04-.45.12-.59.15-.52.1-.94.17-1.48.15-.02,0-.22-.13-.45-.15-.94-.09-1.74-.2-2.67-.44-.04.04.25.68.3.74-.1.05-.12.28-.15.3-.09.06-.63.39-.74.45-.16.08-.42.08-.59.15-.23-.3-1.6-2.17-1.73-2.21-.2-.06-.91.06-.79.35.08.19.68.8.87,1.07.12.17.12.44.17.49-.06.07-.1.26-.15.3-.34.23-.52.15-.89.59-.04.05-.1.09-.15.15l-1.56-1.78-.96,1.18c-.12.02-.25-.14-.3-.15.4-1.13,1.67-2.13,2.82-2.45,2-.56,3.93.6,5.88.8,5.11.52,8.8-3.15,7.55-8.29-.3-1.23-1.06-2.35-1.41-3.56.15-.02.3.02.45,0ZM126.66,126.92c-.11-.06-1.39-.23-1.45-.18.15.21,1.02,1.63,1.12,1.64.28.02.63-.46.95-.46.07-.09-.58-.97-.63-1ZM122.39,127.33c-.07.1,1.03,1.6,1.12,1.63.16.04.65-.39.81-.52.02-.09-.95-1.45-1.03-1.49-.22-.11-.61.41-.89.38Z"/>
      <path class="cls-1" d="M87.09,39.37c.12.12.17.18.3.3.41.4.68.71,1.19,1.04.15.1.11.15.45.3.53.23,1.05.37,1.63.3-.05-.7-.12-1.38-.15-2.08h.45c.08.43-.2,2.11.23,2.21.07.02.8-.14.81-.22.1-.56-.09-1.39,0-1.99-.2,0-.4,0-.59,0l.89-.3c0,.09.13.3.15.51.04.57-.03,1.15,0,1.71.05.06.84-.28.86-.32.07-.11-.11-2.11-.12-2.5h.45c.01.7-.08,1.4.15,2.08.98-.42.95-1.12.89-2.08-.2,0-.4,0-.59,0,.21-.28.71-.11,1.04-.15.03.2-.14.74.15.74.37-.89,1.04-1.63,1.63-2.37.33.24.22.22.3.3-1.68,2.11-2.86,4.99-6.02,5.05-3.97.07-5.03-3.72-7.88-5.46-2.66-1.63-6.2-1.09-8.06,1.45-.19-.05-.4-.11-.59-.15.99-1.24,1.87-2.03,3.41-2.45,4.51-1.23,6.32,1.24,9.05,4.08Z"/>
      <path class="cls-1" d="M63.65,49.3c.1.04,1.08,1.51,1.19,1.78.21.04.19.03.31-.09.23-.24.48-.81.73-1.09.12.03.32-.03.45,0-.43,1.06-1.26,1.93-2.32,2.35-3.83,1.53-7.52-2.72-11.92.98-3.57,3-2.56,7-.59,10.61-.18.03-.41-.03-.59,0-.4-1.42-1.3-2.64-1.59-4.12-.7-3.51,1.63-7.43,5.15-8.34.12-.03.31.02.45,0,.63-.11.97-.15,1.63-.15.09,0,.42,0,.45,0,.98.08,1.88.34,2.82.59-.23-.17-.34-.61-.44-.74.1-.09.12-.42.15-.45.04-.03.84-.43.89-.45.07-.02.22-.01.3,0,.67.1,1.58,1.99,1.84,2.03.05,0,.99-.05.82-.32-.53-.42-.8-1.04-1.19-1.56.06-.07.1-.26.15-.3.15-.11.48-.2.74-.38.14-.1.14-.35.15-.36.02-.01.41-.02.45,0ZM63.45,49.91c-.11.02-.71.43-.68.63.03.22.88,1.31,1.21,1.27,1.3-.17-.35-1.92-.53-1.89ZM61.87,52.12l-1.26-1.62-.81.66c.6.8,1,1.09,2.07.96Z"/>
      <path class="cls-1" d="M77.74,136.82c.05.15.1.29.15.45-1.09.74-2.2,1.79-3.41,2.3-3.39,1.43-7.38.09-9.05-3.19-.05-.1-.28-.56-.3-.59-.21-.54-.22-.94-.3-1.48-.03-.21-.15-.42-.15-.45-.08-.91.06-1.9,0-2.82-.21.22-.56.53-.74.74-.05-.1-.28-.12-.3-.15-.31-.4-.34-.49-.74-.89-.06-.06-.09-.21-.15-.3.03-.04.03-.25.14-.37.29-.33,1.72-1.65,1.74-1.93,0-.06-.29-.68-.33-.67-.4.4-.8.79-1.19,1.19-.11.11-.34.12-.37.14-.06-.11-.26-.11-.3-.15-.26-.24-.35-.52-.74-.74-.09-.05-.07-.14-.3-.15.69-1.19,2.68-2,.15-2.52.01-.15,0-.3,0-.45.4,0,.8.22,1.14.42,3.88,2.3,1.75,6.02,2.64,9.52.9,3.54,4.28,5.5,7.82,4.71,1.78-.4,3.06-1.72,4.57-2.63ZM62.02,127.77c.3-.07.73.59.81.59.07,0,1.01-.97,1.04-1.04.2-.44-.24-1.08-.57-1.02-.13.02-1.41,1.29-1.28,1.47ZM63.4,130.05c-.42.47.35.77.62,1.14.52-.56,1.19-1.41.74-2.22-.16-.29-.24-.02-.35.1-.34.37-.76.7-1.02.98Z"/>
      <path class="cls-1" d="M52.23,66.22c-.12,2.33-1.49,4.16-3.74,4.79-3.34.94-7.73,1.25-8.26,5.83-.44,3.74,1.31,5.72,4.14,7.77-.15.1-.03.07-.45.3-2.11-1.7-4.02-3.43-4.28-6.32-.18-2.01.81-4.53,2.35-5.84.03-.03.32-.21.45-.3.35-.25.94-.58,1.34-.74.12-.05.3-.1.45-.15.82-.29,1.8-.54,2.67-.59-.09-.12-.52-.55-.59-.59.01-.09-.02-.21,0-.3.01-.05.41-.85.45-.89.02-.02.41.08.3-.3.77.22,1.6.7,2.37,1.12.37.11.66-.21.89-.46,0-.14-1.3-.71-1.54-.84-.14-.07-.21-.25-.24-.27.02-.09-.03-.24,0-.3.05-.1.59-.7.74-.89.04-.05.1-.1.15-.15.6.25,1.45.39,2.08.74l.3-1.48c.05,0,.27-.11.45-.15ZM49.65,67.57c-.22.04-.62.64-.48.87.04.06,1.15.65,1.27.68.42.1.85-.57.68-.83-.07-.11-1.36-.74-1.48-.72ZM49.11,70.22l-1.86-.88-.52.94c.61.44,1.06.42,1.76.27.14-.03.63-.14.62-.34Z"/>
      <path class="cls-1" d="M128.03,53.16c-.02.14.01.3,0,.45-.07.72-.14.82,0,1.63.02.14-.03.32,0,.45.06.24.6,1.46.81,1.46.56-.39,1.06-.86,1.56-1.32.1.09.11.41.15.45-.18.23-1.46,1.17-1.48,1.27-.04.15.32.54.45.59.48.22,1.49-.85,1.78-1.27.07.05.34.05.45.15-.53.49-.96,1.15-1.63,1.56.27.08.75.63.88.52.18-.47.84-.97,1.26-1.34.23-.2.63-.26.67-.3-.02.09.03.25,0,.3-.2.35-1.2.95-1.48,1.33.93.36,1.71.13,2.22-.74.04.04.24.04.3.15-.03.03-.25.62-.45.74l3.12-.15c.03.24,0,.17,0,.3-2.78.3-6.03.95-8.01-1.56-2.43-3.08-.21-6.34-.61-9.77-.31-2.62-2.69-4.9-5.27-5.27-.24-.03-.65-.11-.8.13-.06-.16-.24-.63-.3-.74,3.66-.07,6.81,2.97,6.97,6.6.07,1.5-.39,2.92-.59,4.37Z"/>
      <path class="cls-1" d="M143.16,94.25c2.75,2.18,4.87,4.72,4.11,8.49-.2,1-1.27,3.35-2.18,3.82-.47.24-.28.18-.45.3-.21.15-1.2.83-1.34.89-.06.03-.39.08-.59.15-.64.21-2.05.29-2.52.52-.06.03-.18.18-.15.22.28-.05.44.22.59.3-.02.09.03.23,0,.3-.07.19-.33.73-.45.89-.05.07-.27.13-.3.3-.07-.04-.35-.01-.54-.12-.46-.24-1.77-1.12-2.16-1.04-.1.02-.76.35-.56.56.69.06,1.26.76,1.78,1.04-.11.06-.11.24-.15.3-.29.36-.36.53-.59.89-.03.05-.11.09-.15.15l-2.07-.89-.3,1.63c-.14.02-.31-.02-.45,0,.29-6.29,7.28-3.72,10.54-7.19,1.63-1.74,2.07-4.69,1.25-6.9-.68-1.83-2.38-3.07-3.78-4.31.13-.08.21-.17.45-.3ZM140.19,108.95c-.06-.09-.89-.32-1.1-.31-.27,0-1.13.18-1.27.45.45,0,1.51.96,1.84.88.18-.04.65-.83.53-1.02ZM137.37,111.75c-.03-.29.49-.67.38-.89-.07-.15-1.49-.94-1.56-.88-.04.03-.46.76-.45.81.03.12,1.53,1.04,1.63.97Z"/>
      <path class="cls-1" d="M143.16,94.25c-.23.13-.31.22-.45.3-.79.48-.72.41-1.34,1.04-.1.1-.08.01-.3.3-.31.4-.74.73-.89,1.33.69.16,1.38.31,2.08.45.01.15-.14.34-.15.45l-2.08-.45c.07.31-.18.69-.16.95.01.16,1.93.4,2.23.53v.3c-.64-.12-1.42-.1-2.08-.3.04.21-.07.77.01.87.08.1,2.15.39,2.51.46.07.18-.14.37-.15.45l-2.08-.44c.16,1.13.95,1.31,1.93,1.48-.02.14.01.3,0,.45-.17-.03-.83-.39-.89,0,.81.48,1.41,1.41,2.08,2.08-.05.04.01.23-.3.45-.62-1.07-1.7-1.79-2.43-2.83-1-1.41-1.47-2.73-1.08-4.47.92-4.08,5.28-3.92,7.6-6.79,1.69-2.09,1.87-5.61-.08-7.57.09-.16.29-.42.3-.45,2.18,2.25,2.09,5.85.21,8.29-1.31,1.7-2.73,2.15-4.51,3.13Z"/>
      <path class="cls-1" d="M74.33,40.26c-.64,2.79-.48,5.86-3.43,7.32-3.61,1.78-5.82-.96-9.11-1.24s-6.12,1.74-6.9,5.04c-.14.02-.32-.03-.45,0,.2-2.35,2.2-4.47,4.37-5.2,2.92-.98,4.73.05,7.35,1.04.14.05.3.26.45.3.32.09,1.1.11,1.48.15.1,0,.24.17.59.15.24-.01,1.41-.31,1.47-.54.14-.47-.84-1.27-.73-1.84.09-.2.37-.11.45-.15,0,.5.58,1.85,1.08,1.75,1.19-.22-.05-1.65-.48-2.2.07-.05.13-.27.3-.3.27.49,1,1.06,1.04,1.78.37-.2.68-.48.57-.93-.04-.14-.86-1.76-1.01-2.04.06-.28.26-.23.45-.3-.02.75.55,1.54,1.04,2.08.33-.94.45-1.57-.3-2.37.02-.02-.09-.42.3-.3.1.19.31.69.59.59l.3-2.97c.31.04.35.08.59.15Z"/>
      <path class="cls-1" d="M139.01,59.54c1.67.35,3.04,2.03,3.63,3.56,1.45,3.76-.3,6.2-2.3,9.2-.02.03-.18.03-.45.45-.35.55-.38.74-.59,1.34-.01.04-.24.06-.3.45-.07.49.05,1.12,0,1.63.74-.12,1.49-.28,2.22-.44.02.14-.03.33,0,.45-.3.09-2.01.37-2.08.45-.03.03.12.85.16.88.2.2,1.82-.35,2.22-.29.02.07.16.18.15.3-.64.16-1.28.35-1.93.45,0,1.25,1.97.48,2.82.3,0,.16.12.31.15.45-.58,0-1.15.14-1.69.31-.17.05-.55.05-.53.28.8.5,1.52.87,2.37.15.04.11.22.24.15.45-.04,0-.58.32-.59.44l2.82,1.04c-.06.17-.03.23-.15.45-2.77-1.13-5.48-1.6-6.31-4.89-1.08-4.28,2.66-5.77,3.63-9.28.86-3.1-.48-6.09-3.26-7.63,0-.02-.15-.18-.15-.45Z"/>
      <path class="cls-1" d="M145.09,106.56c.15.7.26,1.76.16,2.46-.04.28-.31.19-.31.3-.09,3.3-3.09,5.34-6.17,5.83-.88.14-1.87.07-2.73.16-.15.02-.3-.02-.45,0-.48.05-1.03.27-1.48.45-.14.05-.29.07-.45.15-1.9.91-1.11,1.41.3,2.37-.07.06-.26.1-.3.15-.58-.14-1.56-1.57-1.97-.7-.34.74.93,1.3,1.52,1.59-.07.14-.14.28-.15.45-.53-.38-1.26-.65-1.71-1.19-.14.13-.24.49-.23.66.02.25,1.58,1.45,1.93,1.71-.05.1-.29.13-.3.15l-1.78-1.19c-.24,1.22.48,1.5,1.19,2.23-.05.05-.1.1-.15.15-.09-.07-.42-.08-.52-.3-.12.98.64,1.94.67,2.97-.16.05-.22.1-.45.15-.46-2.83-2.09-4.92-.36-7.7,2.32-3.71,6.34-1.92,9.71-3.5,2.67-1.25,4.13-4.15,3.56-7.05.16-.11-.03-.05.45-.3Z"/>
      <path class="cls-1" d="M132.63,127.48c-.54,3.51-3.78,5.96-7.32,5.62-1.54-.15-3.08-.99-4.54-1.47-.15-.05-.29-.1-.45-.15-.63-.18-.79-.24-1.48-.3-.15-.01-.3,0-.45,0-.01,0-.08-.11-.19-.1-.24.02-1.42.25-1.44.47.29.54.69,1.08.74,1.71-.04.05-.1.1-.15.15l-1.04-1.72c-1.26.24-.52,1.18-.12,1.92.11.21.06.47.42.39-.11.08-.15.35-.45.3-.31-.58-.75-1.11-.89-1.78-.2-.14-.63.38-.67.58-.04.18.94,2.04,1.12,2.39-.13.1-.32.09-.45.15l-.96-1.93c-.88.9-.23,1.45.07,2.37-.08.04-.17.16-.3.15-.09-.17-.26-.57-.44-.59l-.45,3.11c-.15-.02-.25-.14-.3-.15.27-2.66.29-5.64,2.86-7.15.48-.28,2.06-.85,2.54-.87.29,0,1.88.27,2.17.37,1.1.41,2.41,1.08,3.67,1.37,3.68.84,7.17-.9,7.89-4.7.15-.03.44-.1.59-.15Z"/>
      <path class="cls-1" d="M39.92,95.88c-.03.05.07.28-.04.4-.07.07-.25.03-.26.04-1.95-2.5-2.05-5.77-.06-8.29,1.15-1.46,2.76-2.28,4.36-3.13.42-.22.3-.2.45-.3.58-.39.64-.26,1.34-.89.18-.16.11-.08.3-.3.01-.01.2.02.3-.1.12-.16.69-1.12.59-1.23-.71-.02-1.42-.32-2.08-.45-.01-.11.14-.24.15-.3.47,0,1.77.46,2.09.23.17-.12.2-.89.13-.97s-1.76-.24-2.07-.3c0-.08-.16-.31-.15-.45.74.11,1.47.3,2.23.3-.01-.22.06-.58-.06-.75-.08-.11-2.28-.53-2.61-.58.03-.1.14-.21.15-.3l2.23.3c-.37-1.03-1.06-1.23-2.08-1.33.02-.09-.01-.2,0-.3.16.03.61.05.74-.07l-2.08-2.15c.05-.05,0-.22.3-.45.5,1.07,1.69,1.62,2.45,2.52,1.46,1.72,1.95,3.82.84,5.89-1.21,2.25-3.92,2.65-5.8,4.14-2.8,2.22-3.61,5.88-1.35,8.81Z"/>
      <path class="cls-1" d="M140.34,72.3c2.31.45,4.74,1.28,6.2,3.21,1.54,2.03,1.96,4.96.92,7.32-.01.02-.21.29-.3.45-.18.32-.5.76-.74,1.04-.09.1-.32.33-.45.45-.39.38-2.22,1.57-2.22,1.71,0,.25.71.24.89.22-.03.09-.14.22-.15.3-.03.33.04.71,0,1.04-.01.11-.16.29-.15.45-.94-.06-3.04-.66-3.12.59l1.93.15v.45c0,.25,0,.49,0,.74,0,.09-.19.22,0,.59l-2.37-.15.3,1.63c-.19.11-.42.13-.45.15-1.95-5.74,5.25-6.28,6.59-10.69.51-1.67.44-2.94-.19-4.54-1.17-2.98-4.13-4.26-7.15-4.65.26-.42.43-.42.45-.45ZM144.2,86.98c-.91-.11-1.6.07-2.08.89l2.08.15v-1.04ZM142.86,89.65c-.34-.01-1.76-.3-1.92-.14-.03.03-.15.76-.14.8.09.41,1.5.12,1.91.38l.15-1.04Z"/>
      <path class="cls-1" d="M55.19,53.9c.57,3.06,2.31,5.27.12,8.21s-5.07,1.98-7.99,2.69c-3.37.83-5.9,4.18-4.89,7.64-.12.09-.41.27-.45.3-.61-1.56-.2-3.31.51-4.75,1.79-3.66,4.84-3.61,8.39-4.15.18-.03.42.03.59,0,.59-.11,1-.38,1.48-.59.11-.05.19-.1.3-.15.07-.03.27.02.43-.08.19-.12.94-.65.9-.87-.27-.46-.95-.63-1.29-.88-.13-.09-.14-.36-.19-.4.03-.06.13-.1.15-.15.77.17,1.7,1.77,2.16.44.17-.48-1.25-1.12-1.56-1.48.03-.06-.02-.21,0-.3.34.24.83.57,1.19.81.9.59,1.1-.31.73-.73-.11-.12-1.65-1.22-1.93-1.41.08-.18.41-.12.45-.15.25.13,1.45,1.24,1.63,1.04.21-1.05-.38-1.45-1.19-1.93.04-.07.03-.23.15-.3.14.1.64.32.59-.07-.11-.81-.78-1.72-.74-2.6.16-.05.22-.11.45-.15Z"/>
      <path class="cls-1" d="M42.29,97.07c2.39,1.16,5.28,1.72,6.07,4.68,1.15,4.3-2.84,6.02-3.72,9.76-.65,2.77.59,5.9,3.28,7.07-.01.19,0,.4,0,.59-2.57-.9-4.27-4.26-3.99-6.88.22-2.01,1.68-4.09,2.8-5.73.09-.12.18-.27.3-.45.38-.59.52-.38.74-1.34.03-.12-.04-.39,0-.45,0-.01.23.07.29-.11.09-.27.25-1.29,0-1.46-.09-.06-1.97.31-2.23.38-.01-.14.02-.3,0-.45.3-.02,2-.23,2.07-.3.04-.05.03-.66-.01-.79-.21-.65-1.82.2-2.35.05v-.15c.61-.14,1.3-.47,1.93-.59l-.45-.67-2.66.38c0-.1,0-.2,0-.3.64-.13,1.41-.21,2.02-.43.16-.06.42-.06.21-.31-.04-.04-.96-.5-1.02-.51-.36-.07-.97.15-1.35.22-.02-.07-.16-.17-.15-.3.04,0,.75-.31.74-.44-.98-.27-1.96-.64-2.82-1.19.21-.47.27-.25.3-.3Z"/>
      <path class="cls-1" d="M109.04,41.44c.22.83.16.37.3.59.08.12.33.88.59,1.34.05.09.07.18.15.3.2.28.74,1.29,1.25,1.18.1-.02.9-1.56.98-1.77.11,0,.24.14.3.15l-.75,1.84c.01.08.77.36.83.35.19-.03.9-1.72.81-2.04.14.02.3-.01.45,0-.23.58-.29,1.46-.74,2,1.02.77,1.59-1.5,1.93-2.3.15.02.25.27.3.3l-.82,2.07c1.29-.16,1.39-.72,1.86-1.78.11.03.24,0,.3.15-.1.19-.52.87-.08.74.73-.21,1.76-1.26,2.6-1.48.09.15.09.31.15.45-2.68,1.32-4.85,3.44-8.01,1.85-3.4-1.71-2.69-5.48-4.54-8.22-1.68-2.49-5.08-3.43-7.78-2.09-.16-.14-.42-.42-.45-.45,2.05-.91,4.21-.97,6.22.08,2.72,1.43,3.44,3.97,4.16,6.74Z"/>
      <path class="cls-1" d="M98.66,34.62s.29.3.45.45c.28.25.82.88,1.04,1.19.05.06-.08.36.3.3l1.04,2.67c.19-.06.4-.72.44-.89.09.02.23-.03.3,0,.31.12.69.37,1.04.45.09.02.2-.01.3,0-.12.45-.66,2.77-.57,3.02.07.2.38.31.57.39.08-.5.22-1,.37-1.49.05-.15.21-.25.22-.29.03.09.15.23.15.3,0,.53-.47,1.46-.45,1.7,0,.1.94.48,1.04.38l.45-1.78c.15.06.37-.14.3.3l-.44,1.63h1.63c.05.15.1.32.15.45-.7-.02-1.39.06-2.08-.07-4.54-.82-3.15-8.28-9.15-9.39-4.43-.82-6.6,2.24-8.34,5.75-.12-.12-.18-.17-.3-.3,1.43-3.37,3.76-6.3,7.79-6.08,1.04.06,2.94.7,3.78,1.33ZM103.1,39.08s-.86-.27-1.03-.31c-.32,1.07-.15,1.4.3,2.37.23.17.8-1.98.73-2.07Z"/>
      <path class="cls-1" d="M67.51,135.04c.83-.08,1.5-.74,2.22-1.12,2.6-1.36,4.27-1.93,6.75.08s1.9,3.86,3.07,6.43c1.48,3.26,4.98,4.84,8.29,3.21.02.02.28.17.45.3-2.26,1.61-5.55.9-7.49-.89-1.7-1.55-2.19-3.72-2.89-5.79-.05-.15-.09-.29-.15-.45-.25-.71-.1-.7-.59-1.48-.24-.39-.26-.26-.3-.3-.09-.11-.1-.35-.36-.6-.24-.23-.58-.48-.89-.59-.1.02-.71,1.52-.82,1.78-.12,0-.23-.13-.3-.15l.75-1.85c-.3-.14-.84-.62-1.08-.19-.28.49-.57,1.33-.7,1.89-.15,0-.3,0-.45,0,.16-.37.76-1.88.74-2.15l-.8-.09c-.2.87-.79,1.63-1.13,2.38-.14-.02-.16-.18-.15-.3.03-.37.83-1.84.74-1.93-1.06.02-1.44.59-1.78,1.48-.03-.03-.21.02-.3,0,.06-.14.23-.62.08-.74l-2.6,1.48c-.09-.15-.24-.3-.3-.45Z"/>
      <path class="cls-1" d="M111.86,140.98c.08.02.56.14.59.15-1.97,2.47-5.07,3.33-8.05,2.19-2-.77-3.04-2.32-4.41-3.82-.16-.17-.17-.17-.3-.3-.66-.65-.39-.53-1.34-1.04-.1-.06-.19-.1-.3-.15-.03-.01-.12-.21-.35-.31-.3-.12-.81-.25-1.13-.22-.22.16-.18,1.78-.14,2.16h-.3c-.07-.45.16-1.95-.14-2.16-1.46-.23-1.01.58-.89,1.65.03.28-.18.6.29.52-.14.02-.46.29-.74.15-.04-.69.03-1.39,0-2.08-1.46-.03-.76,1.58-.76,2.46,0,.17-.13.32-.12.36h-.3c.03-.26,0-2.08-.22-2.08-.99.37-.84,1.2-.81,2.08-.07,0-.27.22-.45.15,0-.22.07-.58-.07-.74l-1.71,2.22c-.07-.05-.19-.06-.3-.15,1.89-3.09,3.98-6.19,8.13-4.64,2.28.85,2.99,2.95,4.71,4.34,2.94,2.38,6.67,2.17,9.12-.74Z"/>
      <path class="cls-1" d="M46.44,86.54c.4.56.36,1.62.3,2.3-.33,3.84-5.95,4.35-6.94,8.94s2.92,7.8,7.23,8.34c-.12.18-.21.32-.3.45-4.24-.69-7.9-3.34-7.55-8.07.02-.24.37-2.08.43-2.17,0-.01.19.03.26-.04.11-.12.01-.35.04-.4.13-.22.7-.96.89-1.19.02-.03.45.09.3-.45l2.22-1.49-.07-.29c-.27,0-.54,0-.82,0,0-.1-.01-.2,0-.3.07-.44.15-.7.15-1.19,0-.1,0-.2,0-.3.56-.19,2.66.26,2.97.08.06-.04.47-.64.45-.67-.63-.22-1.38,0-1.93-.3.12-.24-.13-.49-.15-.59,0-.05.01-.1,0-.15.28-.21.11-.71.15-1.04.79.12,1.57.2,2.37.15l-.3-1.48c.11-.07.24-.11.3-.15ZM46.44,88.62c-.51.17-1.43-.26-1.83-.13-.32.11-.3.96-.24,1.02s1.52.19,1.69.13c.28-.1.31-.74.39-1.02ZM45.11,91.14c-.35.17-1.98-.21-2.07-.15-.1.07-.22,1.12-.16,1.18,1.1.17,1.64-.15,2.23-1.04Z"/>
      <path class="cls-1" d="M136.34,61.02c-.14.39-.22.42-.3.59-2.52.12-4.8.48-7.1-.83-1.58-.9-3.08-3.17-3.43-4.95-.03-.13.02-.31,0-.45-.06-.44-.16-1.21-.15-1.63,0-.08.13-.28.15-.45.09-.95.31-1.88.44-2.82-.1.24-.57.42-.59.44.02-.09-.02-.22,0-.3.1-.33.63-.73.71-1,.12-.41-.01-.95.03-1.38-.51.46-1.25.97-1.48,1.63-.04-.03-.36.03-.45-.15.09-.1.15-.35.3-.52.25-.28,1.42-1.32,1.45-1.51.04-.21-.19-.86-.49-.8-.08.02-.96,1.02-1.11,1.19-.11-.06-.12-.27-.15-.3.5-.82,1.79-1.55.24-2.07-.15.04-.66.99-1.13,1.18-.07.03-.21-.02-.3,0,1.12-1.46,1.62-1.77-.59-2.23,0-.02-.12-.25-.15-.45,1.6.17,3.4,1.39,3.97,2.93,1.2,3.22-1.4,6.33.37,10.16,1.93,4.17,5.7,4.11,9.75,3.68Z"/>
      <path class="cls-1" d="M43.62,95.59c4.45,1.09,7.9,4.62,6.82,9.49-.03.13-.12.5-.15.59-.03.08-.55,1.27-.59,1.34-.01.02-.07-.07-.3.3-.52.85-1.2,1.64-1.78,2.45.11.23.32-.03.44-.07.06.09.09.22.15.3-.95.45-1.31.64-1.63,1.71l2.22-.67c0,.06-.12.21-.15.3-.76.76-2.57.5-2.22,1.93.06.07,1.56-.65,1.78-.74.02.14-.02.31,0,.45-.99.51-2.43.58-1.26,1.91l1.71-.73c.01.1,0,.2,0,.3-.54.25-1.05.59-1.63.74-.11.14,1.08,1.38,1.34,1.48-.04.12-.13.23-.15.3-1.13-.34-2.08-2.11-2.21-3.21-.56-4.61,5.27-6.37,3.89-12.05-.84-3.43-3.57-4.63-6.57-5.81.1-.09.11-.13.3-.3Z"/>
      <path class="cls-1" d="M51.04,116.8c-.11.24-.09.43-.15.59-.25.69-.38.76-.45,1.63-.02.23-.04.13,0,.45.08.66.19,1.27.67,1.78.11.03,1.66-1.16,1.85-1.34.12.11.34.19.45.3.09.09.39.49.45.59s.05.32.15.45c-.45.39-.83,1.19-1.48,1.34.45,1.42,1.82-.36,2.45-.9.13-.11.33-.11.37-.14.1.18.31.21.45.3s.53.36.59.45c.05.07.05.34.15.45-.13.11-.33.43-.45.59l2.82-.44c.03.13.13.26.15.45-3.21.64-6.89,1.47-8.59-2.17s1.34-5.58,2.16-8.63c.68-2.53-.14-5.38-2.33-6.85.03-.09.12-.46.15-.59,2.58,1.97,3.61,5.06,2.45,8.16-.46,1.21-1.33,2.39-1.85,3.56ZM52.9,120.36l-1.55,1.41c.54.53.54.88,1.26.37.81-.58,1.33-1.11.3-1.78ZM53.86,123.32c.95.36,1.62.12,2.22-.67-.2-.15-.54-.7-.79-.66-.13.02-1.5,1.22-1.43,1.32Z"/>
      <path class="cls-1" d="M143.9,82.98c-.18.3.15.07-.3.45-4.52-1.3-7.99-4.75-6.82-9.79.02-.09.11-.3.15-.45.09-.31.45-1.22.59-1.48.04-.07.2-.28.3-.45.19-.31,1.65-2.01,1.48-2.22-.03-.04-.26.03-.3,0-.05-.05-.09-.21-.15-.3,1.02-.42,1.68-.65,1.63-1.93l-2.22.89c-.04-.06-.1-.1-.15-.15.31-.13,2.52-1.21,2.6-1.33.15-.24.09-.87-.15-.89-.04,0-.58.33-.78.41-.26.1-.63.12-.78.18-.15-.05-.12-.18-.15-.3.25-.11,1.72-.53,1.78-.6.13-.14-.3-.94-.3-1.18-.16-.12-1.59.85-1.78.89-.11.02-.33-.1-.45-.15.01,0-.03-.24.1-.3.53-.27,1.27-.48,1.83-.74.16-.21-1-1.42-1.33-1.48.05-.12.11-.32.15-.45.77.41,1.35,1.12,1.74,1.9,2.27,4.62-3.19,7.06-3.52,11.37-.35,4.46,2.93,6.98,6.83,8.09Z"/>
      <path class="cls-1" d="M79.08,133.56c.17.19.42.42.45.45.04.06.54,1.19.59,1.34.03.09.13.36.15.45.18.7.18.89.43,1.6.11.31.13.74.16,1.07.29.11.38-.25.44-.45.06.03.11.14.15.15.03.46-.36.77-.3,1.25,0,.06.55,1.08.6,1.12.26.23.25-.05.3-.22.18-.6.34-1.24.44-1.86.15.01.3,0,.45,0-.12.37-.56,1.89-.59,2.17s.25,1.41.59,1.09c.07-.06.52-1.53.6-1.78.13,0,.22.12.3.15l-.43,1.91c1.4.64,1.02-.52,1.47-1.47.08.02.2-.02.3,0l-.3,1.78,1.78-.15c.05.09.23.35.3.45-1.51.27-3.03.28-4.35-.62-3.11-2.11-1.51-7.67-6.27-10.04-3.41-1.7-6.08-.07-9.1,1.46,0-.04-.14-.18-.15-.45,1.3-.56,2.45-1.48,3.83-1.89,3.2-.93,6.06,0,8.19,2.48Z"/>
      <path class="cls-1" d="M99.55,135.79c.17.09.42.14.45.15.07.04,1,.86,1.19,1.04.1.09.2.2.3.3.56.56,1.21,1.41,1.63,2.08.23.05.16-.3.15-.44.15.01.33-.13.45-.15-.12,1.01.32,1.73,1.26,2.08l-.22-2.08s.19-.16.3-.15c.06.35.48,2.52.59,2.6.15.11.54.07.74.22-.07-.65-.19-1.29-.3-1.93.16-.08.41.15.45.15.05.25.24,1.71.3,1.77.13.13.94-.09,1.18-.14l-.45-1.78c.07-.01.26-.22.45-.15.09.59.21,1.19.3,1.78.17.15,1.56-.66,1.63-1.04.23.14.41.28.45.3-1.81,1.81-4.36,1.99-6.38.37s-2.79-3.92-5.67-4.86c-4.46-1.47-7.28,1.3-9.46,4.79-.02-.03-.22.07-.45-.45,1.13-1.13,1.82-2.6,3.11-3.64,2.21-1.76,5.49-2.08,8.01-.81Z"/>
      <path class="cls-1" d="M98.21,38.18c.07.11.1.21.15.3-1.87,3.65-4.98,6.18-9.35,5.12-.26-.06-1.26-.41-1.48-.53-.03-.02-.27-.19-.45-.3-.22-.14-.97-.7-1.19-.89-.02-.02.05-.2-.03-.27-.11-.1-.36,0-.41-.03-.02-.01-.03-.24-.14-.37-.53-.56-.98-1.19-1.56-1.7-.02.17.05.4.08.59h-.45c-.09-1.02-.19-1.7-1.26-2.08l.22,2.08s.06.41-.3.3c-.06-.38-.43-2.56-.52-2.67-.15-.19-.59-.14-.82-.29.05.65.2,1.29.3,1.93h-.45c-.14-.53-.13-1.2-.29-1.71s-.84-.09-1.2-.07l.3,1.78s.06.41-.3.3c-.11-.64-.24-1.28-.3-1.93-.7-.02-1.15.66-1.78.89-.31-.21-.28-.28-.3-.3.5-.33.98-.69,1.53-.92,4.74-1.95,6.06,3.22,9.4,5.04s6.52.73,8.87-2.05c.61-.72,1-1.61,1.7-2.23Z"/>
      <path class="cls-1" d="M130.55,127.78c-.45,1.39-2.21,3.05-3.65,3.25-3.37.47-5.82-2.65-9.88-1.72-4.28.98-5.2,4.76-5.76,8.56-.19-.12-.26-.16-.45-.3.44-2.32.64-4.59,2.23-6.45,1.22-1.44,3.75-2.65,5.63-2.6.02,0,.21.13.45.15.41.03,1.3.07,1.63.15.05.01.18.17.3.15l2.6,1.18-.08-.59c.04-.05.1-.1.15-.15.69.75,1.06,1.3,2.23,1.19l-1.34-1.78c.05-.03.09-.22.15-.3,0,.01.2-.03.3.11.2.27,1.32,1.95,1.44,1.98.24.06.73-.06.93-.23-.44-.49-.79-1.04-1.19-1.56.18-.07.43-.07.59-.15.06.22.69,1.42.76,1.47.26.19,1.17-.38,1.17-.5,0-.09-1.02-1.22-1.18-1.41.03-.02.05-.24.15-.3.14.18,1.28,1.35,1.39,1.33.25-.05.96-1.28.98-1.62.23.02.42.15.45.15Z"/>
      <path class="cls-1" d="M107.71,44.71c.08.12.25.39.3.45-1.89.6-4.01.27-5.68-.77-2.1-1.3-2.83-3.89-3.96-5.91-.05-.09-.08-.18-.15-.3-.45-.75-.36-.69-1.04-1.34-.08-.08.03-.06-.3-.3-.13-.1-.15-.25-.44-.37-2.08-.9-1.54.44-1.34,2-.32.04-.83-.13-1.04.15-.15,0-.3,0-.45,0h-.45c-.03-.74.02-1.49,0-2.23-.06-.06-.81.08-.87.17-.07.11-.04,2.28-.02,2.65l-.89.3c-.15,0-.3,0-.45,0h-.45c-.01-.3,0-.59,0-.89-.09-.13-1.47,2.39-1.48,2.67-.33-.14-.29-.2-.45-.3,1.49-2.69,2.85-5.81,6.56-5.3,4.21.57,3.9,4.79,6.12,7.38,1.69,1.97,3.96,2.42,6.45,1.93ZM94.65,35.8c-1.84-.27-1,.91-1.04,2.08,1.56.29.92-1.06,1.04-2.08ZM90.94,38.77c1.39.25.77-1.19.89-2.08-.87.52-1.01,1.1-.89,2.08Z"/>
      <path class="cls-1" d="M75.81,41c.17.11.24.14.45.3-.53,4.59-2.65,8.9-7.86,8.9-.2,0-.4.01-.59,0-.47-.04-1.02-.18-1.48-.3-.13-.03-.33.03-.45,0-.5-.15-1.28-.67-1.89-.85-.25-.08-.65-.22-.34.26-.04-.02-.43-.01-.45,0-.6-.84-1.05-.97-2.08-1.04l1.19,1.78c-.05.04-.09.22-.15.3-.22-.29-1.46-2.06-1.58-2.09-.21-.04-.72.12-.94.23.29.58,1,1.03,1.04,1.71-.08-.01-.23-.02-.3,0-.36-.33-.9-1.58-1.37-1.46-.15.04-.74.43-.7.64.02.08,1,1.1,1.18,1.27-.03.03-.05.36-.15.45-.13-.17-.9-1.02-1.03-1.12-.81-.62-1,.68-1.34,1.27-.02,0-.35,0-.45,0,.36-1.25,1.29-2.39,2.47-2.95,3.87-1.85,7.48,3.15,12.52.66,3.17-1.57,3.69-4.78,4.3-7.94Z"/>
      <path class="cls-1" d="M61.42,122.73c.03.16.14.35.15.45.05.46.03,1.15,0,1.63,0,.15.01.3,0,.45-.04.43-.59,2.44-.44,2.67.11.02.23-.15.3-.15.23,0,.21.1.3.15-.49.56-1.27,1.41-.82,2.23.15.27.24.03.37-.08.46-.36.79-.98,1.19-1.41.04.04.24.04.3.15-.18.19-.55.88-.81,1.19-.65.75-1.53.76-.45,1.78.32-.54.88-.91,1.26-1.33.06.08.09.24.15.3-.52.71-1.74,1.49-.39,2.07l1.13-1.18s.24.05.3.15c-.36.42-.7.95-1.04,1.41.06.26,1.44.66,1.78.67,0,.02.12.24.15.45-1.94-.12-3.62-1.45-4.2-3.3-1.06-3.41,1.87-6.11-.43-10.25-.3-.54-1.93-2.25-1.9-2.4.13-.55.37.06.51.22,1.37,1.57,2.15,1.78,2.6,4.15Z"/>
      <path class="cls-1" d="M57.27,53.75c1.69,4.44,1.67,9.5-3.12,11.87-.05.03-.29.08-.45.15-.53.22-.93.32-1.48.45-.18.04-.39.14-.45.15-.63.1-1.97.03-2.42.17-.42.13-.28.43.05.57-.05.05-.11.09-.15.15-.86-.49-1.65-.75-2.52-.07l1.78.96c-.03.06.02.21,0,.3-.08-.04-.35-.02-.55-.12-.8-.39-1.87-1.4-2.42-.4l1.48.96c.12.37-.28.28-.3.3-.87-.69-1.87-1.48-2.07.14l1.63.75c-.02.08.01.2,0,.3-.09-.05-1.35-.54-1.45-.56-.93-.22-.56,1.09-.63,1.75-.15.05-.32.1-.45.15-.15-1.4.17-2.53,1.04-3.63,2.73-3.42,8.12-.52,11.63-4.99,2.39-3.04,1.21-6,.38-9.33.15,0,.3-.02.45,0Z"/>
      <path class="cls-1" d="M136.93,73.19c-.04.14-.13.36-.15.45-2.18-1.31-3.19-3.97-2.96-6.45.18-1.98,1.42-3.79,2.22-5.57.08-.17.16-.2.3-.59.26-.75.28-.79.3-1.63,0-.13.03-.06,0-.3-.09-.78-.32-1.22-.6-1.93-.09-.07-1.45,1.1-1.65,1.25-.14.11-.39.06-.43.08-.06-.11-.25-.11-.3-.15-.21-.19-.32-.61-.74-.59.03-.05-.02-.21,0-.3.02-.02.05-.31.21-.45.47-.42,1.03-.74,1.42-1.25-1.06-.87-1.54.28-2.3.97-.16.14-.42.21-.52.3-.11-.1-.38-.1-.45-.15-.12-.09-.68-.54-.74-.59-.03-.03-.05-.35-.15-.45.2-.18.44-.38.59-.59l-2.97.44c-.03-.12.02-.31,0-.45,2.89-.58,6.01-1.34,8.07,1.35,3.1,4.05-1.42,6.75-1.82,10.61-.26,2.45.72,4.52,2.65,5.99ZM133.22,55.24c-.98-.31-1.59-.16-2.22.67l.79.66,1.43-1.32ZM135.57,57c.2-.35-.43-.78-.65-1.02l-1.55,1.41c.2.15.53.69.79.65.09-.01,1.37-.96,1.42-1.04Z"/>
      <path class="cls-1" d="M143.31,107.75c-.09,2.46-1.48,4.64-3.98,5.15-3.53.71-6.21-.14-8.87,3.08-.81.97-1.33,2.59-1.4,3.86-.11,1.91.78,3.59,1.04,5.42-.19-.02-.32-.12-.45-.15-1-3.07-1.77-5.94.09-8.89.53-.85,2-2.24,2.88-2.68.08-.04.39-.07.59-.15.57-.22.85-.34,1.48-.45.14-.02.3.02.45,0,.89-.13,1.78-.22,2.67-.3l-.3-.44c.04-.06.12-.1.15-.15.83.32,1.56.78,2.37.07l-1.78-.96c.04-.05.04-.23.15-.3.16.09.71.19,1.04.37.49.25.74.76,1.37.65,1.52-.27-.29-.92-.63-1.1-.18-.1-.27-.34-.3-.36.03-.16.25-.23.3-.3.28.36,1.38,1.01,1.71.76,1.09-.83-.72-1.3-1.27-1.65.03-.07-.02-.21,0-.3.07.03.27,0,.43.08.29.14,1.23.83,1.49.65l.15-1.78c.2-.07.53-.12.59-.15Z"/>
      <path class="cls-1" d="M141.38,95.59c2.63,1.96,4.95,4.07,3.59,7.67-1.44,3.79-5.66,2.61-8.58,4.17-2.12,1.13-3.37,3.56-3.16,5.96-.2.08-.52.11-.59.15-.08-3.02,1.55-5.86,4.41-6.94,1.3-.49,2.71-.61,4.04-.93.23-.05.35-.08.59-.15.52-.16,1-.27,1.48-.59.31-.21.25-.4.3-.45.06-.05.3-.03.51-.3.16-.2.69-1.13.52-1.33-.74-.15-1.48-.32-2.22-.45.01-.14-.02-.3,0-.45.04-.33.09-.72.15-1.04.01-.07.22-.26.15-.45.79.15,1.55.47,2.37.44l-.14-.79-2.68-.69v-.3c0-.33-.03-.72,0-1.04.01-.11.16-.29.15-.45.39.08.79.2,1.18.22l-2.37-2c.22-.28.2-.19.3-.3ZM144.64,99.59c-.34-1.03-1.01-1.39-2.08-1.33-.32,1.7.93,1.04,2.08,1.33ZM144.94,101.37l-2.07-.29c.06.22-.23.95-.15,1.03.07.08,1.78.28,2.08.45l.15-1.19Z"/>
      <path class="cls-1" d="M87.09,42.78c.18.11.42.28.45.3-2.12,2.07-5.1,2.26-7.69.95-1.34-.68-2.4-1.83-3.58-2.73-.21-.16-.28-.18-.45-.3-.67-.45-.64-.49-1.48-.74-.25-.07-.29-.11-.59-.15-.12-.02-.24-.15-.5-.14-.44.02-.97.29-1.43.29.43.67.68,1.54,1.04,2.22-.39-.12-.27.28-.3.3-.22.17-.5.21-.74.3-.18.07-.38.02-.45.3-.33-.62-.92-1.19-1.04-1.93-.15-.12-.61.33-.67.45-.06.13.64,1.77.78,2.04.11.2.24.45.34.63-.16.03-.23.24-.3.3-.14.1-.52.4-.59.45s-.35-.05-.45.15l-.59-.74c-.29,1-.1,2.08-.15,3.11-.36.02-.49-.14-.59-.15.44-2.96-.21-5.79,2.87-7.44,4.72-2.54,6.7,3.12,10.74,3.99,1.79.39,4.09-.07,5.38-1.45ZM71.37,42.78l1.02-.52-.88-1.86c-1.71.63-.44,1.21-.14,2.37ZM69.43,42.48c-.79.31-.47,2.25.09,2.37.12.03.77-.42.79-.53.08-.33-.88-1.39-.88-1.84Z"/>
      <path class="cls-1" d="M139.3,74.08c1.13.44,2.46.61,3.56,1.11,1.76.8,3.08,2.61,3.12,4.59.09,3.88-3.77,4.62-5.79,7.13-1.57,1.95-1.84,4.49-.74,6.75-.04.04-.28.28-.3.3-1.6-2.3-.88-5.62.89-7.64,1-1.15,2.4-1.92,3.56-2.89.44-.37.12-.14.3-.45.04-.07.81-.48,1.19-1.19.12-.22.09-.28.15-.45.2-.61.42-1.07.3-1.78-.77.23-1.81.16-2.52.3.07-.21-.11-.34-.15-.45-.09-.25-.09-.5-.15-.74-.03-.13-.15-.28-.15-.45.4-.09,2.04-.4,2.22-.52.4-.28-.25-.82-.65-.81-.46.02-1.9.44-2.47.59,0-.12-.13-.23-.15-.3-.09-.35-.2-.7-.3-1.04-.03-.12.02-.31,0-.45.28-.07.55-.23.89-.15.05-.03-.08-.18-.15-.22-.54-.35-2.27-.59-2.97-.81.06-.38.28-.41.3-.45ZM144.05,76.31s-.99-.58-1.12-.59c-.22-.01-1.2.17-1.25.37l.29.96c.54-.33,1.48-.24,1.99-.45.15-.06.12-.25.09-.29ZM145.22,78.09c-.21-.14-1.84.38-2.21.44.1.33.08,1.02.51,1.03.12,0,1.8-.38,1.85-.46.09-.13-.06-.95-.15-1.01Z"/>
      <path class="cls-1" d="M134.11,115.76c1.12,2.92,2.89,5.85.15,8.54-3.14,3.08-6.6.01-10.17.37-2.12.21-4.32,1.97-4.97,4-.23-.02-.42-.15-.45-.15.97-3.07,3.96-4.53,7.04-4.3,1.35.1,2.63.63,3.93.89.12.03.26.13.45.15.62.07,1.07-.04,1.63-.15.23-.04.29-.09.45-.15.66-.22,1.16-.35,1.63-.96-.59-.44-1.25-1.29-1.78-1.71.05-.05.1-.1.15-.15.4-.42.38-.69.59-1.04.01-.02.25-.05.3-.15.6.45,1.28.84,1.86,1.33.14,0,.34-.69.32-.82s-1.89-1.49-2.18-1.7c.01-.16.08-.3.15-.45.1-.22.33-.72.45-.89.03-.05.22-.09.3-.15.13.09.73.47.89.37l-1.19-2.75c.16-.08.3-.09.45-.15ZM135.3,120.8c.3-.6-.79-2.21-1.33-1.86-.1.06-.51.72-.44.82.06.08,1.7,1.13,1.78,1.04ZM133.08,121.55s-.45.75-.44.79c.03.17,1.42,1.3,1.53,1.28.14-.09.67-.76.67-.81,0-.11-1.61-1.36-1.76-1.26Z"/>
      <path class="cls-1" d="M118.83,131.19c-.16,2.77.17,5.84-2.67,7.35-5.04,2.67-7.05-3.51-11.39-4.04-1.66-.21-3.51.38-4.78,1.45-.02-.01-.27-.06-.45-.15,1.24-1.43,3.55-1.98,5.4-1.76,2.35.28,4.07,2.24,5.88,3.54.19.14.26.18.45.3.73.46.71.54,1.63.74.05.01.15.13.3.15.3.03,1.9.01,1.92-.37,0-.12-.89-1.87-1.03-2.15.13,0,.21-.11.3-.15.32-.14.59-.31.89-.45.12-.06.32-.05.45-.15.36.68.82,1.33,1.04,2.08.09.07.49-.44.53-.59.13-.42-.86-2.17-1.13-2.67.3.05.34-.22.45-.3.29-.22.47-.29.74-.59.05-.05.1-.09.15-.15l.74.89.15-2.97c.15,0,.3-.01.45,0ZM117.64,134.01c-1.58.2-.41,1.66.15,2.37.39-1.01.31-1.42-.15-2.37ZM115.43,138.3c1.85-.27.5-1.32.14-2.37-.14.17-.89.46-.89.53,0,.51.68,1.29.75,1.84Z"/>
      <path class="cls-1" d="M54.16,65.62c.28,1.5-.35,3.4-1.21,4.65-1.94,2.8-4.35,2.6-7.24,3.36-.2.05-.28.09-.45.15-.48.17-1.08.44-1.48.74-.3.22-.24.39-.3.45-.01.01-.2-.03-.3.1-.3.39-1.11,1.5-.36,1.67.61.14,1.42.34,2,.45-.01.1.02.21,0,.3-.06.35-.1.69-.15,1.04-.01.09-.12.2-.15.3-.74-.12-1.61-.08-2.37-.3-.03.03.09.69.14.78.18.28,2.26.49,2.67.55-.02.14.15.37.15.45,0,.22-.1.78-.15,1.04,0,.05-.16.18-.15.3-.26-.05-.76-.09-1.04-.07l2.22,1.85c-.18.21-.12.14-.3.3-2.45-2.04-5.06-3.94-3.63-7.56s5.42-2.7,8.33-4.28c2.13-1.15,3.51-3.69,3.31-6.11.16-.06.39-.12.45-.15ZM44.21,77.35c-.06-.07-1.74-.32-1.83-.29-.29.08-.3.7-.25.93.07.3,1.76.29,2.08.54-.04-.23.07-1.1,0-1.18ZM44.66,80.16l-2.08-.3c.33,1.02.83,1.42,1.93,1.34l.15-1.04Z"/>
      <path class="cls-1" d="M141.68,105.53c-.24.07-.37.09-.59.15-2.46-2.6-4.27-4.98-3.37-8.78.21-.87.85-2.26,1.44-2.94.02-.02.26-.26.3-.3.11-.11,1.12-.99,1.19-1.04.03-.02.26-.04.45-.15.23-.13,2.5-1.13,2.37-1.33,0-.01-.21.02-.3-.15-.19-.37,0-.5,0-.59-.09.44.23.3.52.3.73,0,1.43-.15,1.71-.89l-2.23-.15v-.45c.51.04,2.52.3,2.8.12.03-.02.38-.68.18-.8-.31-.18-1.33-.04-1.78-.07-.01-.15.13-.33.15-.45,1.2-.18,2.34.85,2.08-1.04h-2.08c0-.08.12-.2.15-.3.03,0,.16-.15.36-.15.52-.02,1.05.03,1.57,0-.03-.64-.29-1.23-.59-1.78.12-.12.36-.35.45-.45.5,1.5.84,2.56.37,4.15-1.16,3.95-7.4,3.25-8.64,8.72-.81,3.59,1.21,5.94,3.52,8.34Z"/>
      <path class="cls-1" d="M68.4,50.19c-1.14,3.29-4.09,4.79-7.49,4.45-1.15-.11-2.53-.75-3.64-.89-.14-.02-.3,0-.45,0-.67-.04-1.03.03-1.63.15-.22.04-.29.1-.45.15-.8.26-1.23.37-1.78,1.11.51.38,1.04.74,1.56,1.12.18.13.3.39.37.44-.12.06-.1.23-.15.3-.16.25-.41.86-.45.89-.03.03-.36-.03-.45.15-.6-.41-1.28-.74-1.86-1.19-.75,1.04.78,1.54,1.49,2.08.17.13.29.39.37.44-.02.09.03.24,0,.3-.14.3-.41.66-.59,1.04-.02.05-.11.09-.15.15-.17-.12-.64-.2-.82-.44-.37-.12,1.05,2.48.97,2.67-.1.05-.19.1-.3.15-1.35-2.73-2.76-5.32-.59-8.08,3.06-3.88,6.6-.66,10.3-.97,2.22-.18,4.5-1.84,5.12-4,.19.01.4,0,.59,0ZM52.54,55.54c0,.27-.5.68-.39.88.12.25,1.36.89,1.64,1.17,1.25-1.09-.35-1.6-1.25-2.06ZM51.64,58.2c-.03,1.05.33,1.62,1.26,2.08,1.18-1.09-.49-1.44-1.26-2.08Z"/>
      <path class="cls-1" d="M48.07,85.2c1.17,1.89.98,4.56-.17,6.43-1.05,1.7-2.83,2.67-4.28,3.96-.18.16-.2.2-.3.3-.53.51-.62.6-1.04,1.19-.03.04-.09-.17-.3.3-.27.61-.34,1.26-.3,1.93.72-.2,1.7-.16,2.37-.3-.01.13.12.22.15.3.12.36.15.66.15,1.04,0,.1,0,.2,0,.3-.07.02-.23.18-.43.23-.55.13-1.11.2-1.64.37.07.55.23.77.79.73.44-.03,1.99-.33,2.47-.44v.15c-.03.39.25.67.3,1.04.02.14-.01.3,0,.45-.2.06-.68.22-.74.44l2.67.74c-.04.05.03.32,0,.45-2.93-.81-6.27-1.62-6.53-5.26-.33-4.69,4.92-5.14,6.56-8.73.75-1.65.84-3.76-.18-5.29.02-.02-.05-.2.03-.27.11-.1.35,0,.41-.03ZM43.91,100.47c.08-.08.08-.91-.24-1.01-.21-.07-1.91.21-1.98.28-.04.04.16.94.39,1.02.12.04,1.76-.22,1.83-.29ZM45.24,101.98c-.18-.13-1.37.21-1.69.28-.21.04-.43-.13-.36.22.79.79,1.38.73,2.37.37-.13-.16-.25-.82-.31-.87Z"/>
      <path class="cls-1" d="M109.93,43.37c2.36-1.64,4.42-3.75,7.52-2.4,1.05.46,2.65,2.25,2.83,3.4.44,2.88-.72,5.57,1.01,8.18,1,1.52,2.45,2.45,4.21,2.83.02.14-.03.31,0,.45-3.55-.49-5.67-3.6-5.78-7.05-.03-1.03.17-2.09.15-3.19,0-.21.04-.24,0-.59-.08-.62-.2-.93-.45-1.48-.06-.13-.06-.3-.15-.45-.32-.51-.9-1-1.41-1.33-.12,0-.95,1.76-1.11,2.07-.06-.14-.18-.12-.3-.15-.34-.09-.73-.13-1.04-.3-.05-.03-.14-.28-.3-.3.29-.69.52-1.42.89-2.08h-.94c-.24.8-.85,1.65-1.14,2.37-.15-.01-.3.02-.45,0-.26-.03-.64-.1-.89-.15-.06-.01-.18-.16-.3-.15.04-.11.32-1.05-.07-.89-.57.24-1.38,1.42-2.15,1.48-.08-.11-.1-.21-.15-.3ZM114.53,41.15c-1.18.08-1.59.47-1.78,1.63,1.38.55,1.38-.64,1.78-1.63ZM115.73,43.07c.84.49,1.38-.45,1.56-1.18.17-.69-.82-.85-.97-.74-.08.06-.69,1.81-.59,1.91Z"/>
      <path class="cls-1" d="M119.87,45c.04.36,0,.38,0,.59-2.69,1.74-5.69,3.18-8.88,1.84-.93-.39-2.36-1.49-2.98-2.28-.04-.06-.22-.33-.3-.45-.21-.31-.6-1.01-.74-1.34-.05-.13-.09-.3-.15-.45-.31-.86-.48-1.8-.74-2.67l-.44,1.04c.08-.44-.14-.24-.3-.3-.34-.13-.68-.23-1.04-.3,0-.07-.12-.21-.15-.3.09-.32.61-2.57.57-2.71-.05-.18-.58-.7-.72-.55.06.59-.31,1.12-.45,1.63-.09-.01-.21.02-.3,0-.09-.58.78-1.71.2-2.05-1.18-.7-.85.83-1.23,1.61-.07-.03-.21.02-.3,0,.13-.53.17-1.36.3-1.93l-1.78.15c-.38.07-.25-.23-.3-.3,2.58-.92,5,.35,6.01,2.82.93,2.28.93,4.57,2.89,6.46,3.35,3.22,7.47,1.77,10.83-.52ZM105.48,40.55c.32-.77.54-1.9-.44-2.22-.11.98-1.12,2.09.44,2.22Z"/>
      <path class="cls-1" d="M67.06,132.97c0,.27.14.41.15.45.05.6.05,1.05.3,1.63.06.14.21.3.3.45.33.55.78,1.25,1.48,1.33.22-.62.51-1.22.78-1.82.07-.16.25-.23.26-.25.08.02.27-.03.3,0,.02.02-.07.22.11.29.23.1.66.08.93.15,0,.12,0,.28.15.3-.31.7-.52,1.47-.89,2.15,0,.11.81.11.94.08s1.01-2.08,1.14-2.38c.15,0,.3,0,.45,0,.32.02.73.06,1.04.15.07.02.18.15.3.15-.14.32-.26.7-.37,1.04l2.45-1.63s.05-.09.3.3c-2.76,1.88-5.42,4.27-8.67,1.63-2.73-2.22-1.48-4.92-1.71-7.78s-2.24-5.43-5.19-6.01c-.01-.09-.12-.28-.15-.45,3.06.25,5.52,3.19,5.78,6.16.12,1.37-.16,2.82-.15,4.08ZM69.58,137.27s.85.26.89.24c.15-.09.92-1.76.83-1.87-.17-.13-.83-.38-.96-.28-.08.06-.84,1.82-.76,1.92ZM72.4,137.57c.88-.17,1.37-.33,1.66-1.23.23-.69-.38-.52-.92-.7l-.74,1.93Z"/>
      <path class="cls-1" d="M88.42,140.24c.23.52.43.42.45.45.42.63.35.77,1.04,1.34.11.09.22.1.3.15.57.38.97.77,1.78.74-.01-.74.02-1.49,0-2.22.18.07.38-.14.45-.15.18-.03.4,0,.59,0,.05,0,.1,0,.15,0h.59c.02.8-.02,1.58.15,2.37,1.45-.17.8-2.08.74-3.12.28.14.61-.13.74-.15.22-.03.5,0,.74,0h.3c.01.16.1.86.29.89l1.34-2.52c.11.05.19.09.3.15-1.3,3.42-3.92,6.73-7.96,4.77-2.43-1.18-2.7-4.13-4.05-6.19-1.55-2.36-4.04-3.36-6.83-2.74-.02-.03-.28-.25-.45-.45,3.52-.87,6.51.61,8.18,3.76.5.94.74,1.96,1.16,2.92ZM95.1,142.16c1.09-.34,1.14-1.24,1.04-2.23-.2.23-1.04.1-1.04.15v2.08ZM92.43,143.05c1.6.31.91-1.19,1.04-2.23-.2.23-1.04.1-1.04.15v2.08Z"/>
      <path class="cls-1" d="M45.7,73.63c2.57,2.57,4.66,4.61,3.76,8.58-.12.51-1.03,2.82-1.38,2.99-.07.03-.3-.07-.41.03-.08.07-.01.25-.03.27-.3.28-.88.83-1.19,1.04-.06.04-.19.08-.3.15-.2.13-2.53,1.16-2.37,1.33.1.02.2-.01.3,0-.04.33.13.83-.15,1.04-.03-.15.04-.55,0-.59-.24-.23-2.06.11-2.08.82,0,.1,1.87.19,2.08-.07.01.1.27.35.15.59-.45.15-2.49-.18-2.67-.08-.16.08-.56.72-.44.82.53.06,1.18-.16,1.63.15,0,.1,0,.2,0,.3-.51.09-1.41-.13-1.84,0-.15.04-.29,1-.24,1.05l1.93.15c-.01.09,0,.2,0,.3-.59-.02-1.19.01-1.78,0-.07.65.13,1.23.45,1.78.15.54-.27.42-.3.45-.6-1.33-.89-2.26-.52-3.71,1.08-4.34,8.02-3.6,8.79-9.3.5-3.71-1.52-5.44-3.82-7.9.16-.06.24-.09.45-.15Z"/>
      <path class="cls-1" d="M51.04,116.8c2.05.06,4-.26,5.97.46.03.01.42.34.49.38.04.02.96.16.66.49s-1.38-.43-1.75-.55c-1.72-.56-3.75-.35-5.52-.19.06-.16.04-.35.15-.59Z"/>
      <path class="cls-1" d="M93.17,140.53s-.1,0-.15,0l.07-.15.07.15Z"/>
    </g>
    <g>
      <path class="cls-1" d="M191.4,37.2h5.09c3.12,0,5.62,1.13,5.62,4.62s-2.58,4.87-5.62,4.87h-1.84v4.87h-3.25v-14.36ZM196.3,44.11c1.78,0,2.63-.8,2.63-2.29s-.92-2.04-2.63-2.04h-1.66v4.33h1.66Z"/>
      <path class="cls-1" d="M204.32,48.53c0-2.45,2.02-3.7,7.19-4.01-.11-.98-.85-1.58-2.32-1.58-1.05,0-2.1.41-3.33,1.02l-1.16-2.12c1.52-.86,3.26-1.48,5.12-1.48,3.07,0,4.93,1.6,4.93,4.95v6.25h-2.65l-.23-1.23h-.08c-1.1.83-2.47,1.5-3.88,1.5-2.21,0-3.59-1.46-3.59-3.29ZM211.51,48.27v-1.79c-3.22.16-4.08.86-4.08,1.79,0,.7.59,1.04,1.51,1.04.97,0,1.8-.45,2.57-1.05Z"/>
      <path class="cls-1" d="M217.78,40.63h2.64l.23,1.46h.09c.95-.93,2.15-1.72,3.78-1.72,2.47,0,3.56,1.69,3.56,4.45v6.75h-3.24v-6.33c0-1.45-.42-2.1-1.6-2.1-.86,0-1.45.4-2.21,1.14v7.29h-3.24v-10.93Z"/>
      <path class="cls-1" d="M230.45,46.1c0-3.58,2.3-5.74,4.67-5.74,1.2,0,2.02.43,2.76,1.18h.08l-.15-1.69v-3.72h3.24v15.43h-2.64l-.23-1.12h-.08c-.8.79-1.94,1.39-3.03,1.39-2.79,0-4.61-2.15-4.61-5.72ZM237.8,48.15v-4.41c-.59-.54-1.19-.73-1.83-.73-1.18,0-2.2.96-2.2,3.04s.79,3.11,2.12,3.11c.74,0,1.35-.27,1.92-1.01Z"/>
      <path class="cls-1" d="M243.66,46.1c0-3.64,2.69-5.74,5.57-5.74s5.57,2.1,5.57,5.74-2.69,5.72-5.57,5.72-5.57-2.1-5.57-5.72ZM251.49,46.1c0-1.9-.76-3.12-2.25-3.12s-2.25,1.22-2.25,3.12.76,3.11,2.25,3.11,2.25-1.22,2.25-3.11Z"/>
      <path class="cls-1" d="M256.88,46.1c0-3.64,2.69-5.74,5.57-5.74s5.57,2.1,5.57,5.74-2.69,5.72-5.57,5.72-5.57-2.1-5.57-5.72ZM264.71,46.1c0-1.9-.76-3.12-2.25-3.12s-2.25,1.22-2.25,3.12.76,3.11,2.25,3.11,2.25-1.22,2.25-3.11Z"/>
      <path class="cls-1" d="M269.83,40.63h2.44l.23,1.35h.08c.41-.88,1.1-1.61,2.37-1.61.95,0,1.64.62,1.9,1.79.39-.99,1.17-1.79,2.42-1.79,1.56,0,2.44,1.34,2.44,3.53v7.67h-3.08v-7.44c0-.68-.16-1-.59-1s-.7.34-1,1.06v7.37h-2.53v-7.44c0-.68-.2-1-.62-1-.4,0-.68.34-.97,1.06v7.37h-3.08v-10.93Z"/>
      <path class="cls-1" d="M283.63,48.53c0-2.45,2.02-3.7,7.19-4.01-.11-.98-.85-1.58-2.32-1.58-1.05,0-2.1.41-3.33,1.02l-1.16-2.12c1.52-.86,3.26-1.48,5.12-1.48,3.07,0,4.93,1.6,4.93,4.95v6.25h-2.65l-.23-1.23h-.08c-1.1.83-2.47,1.5-3.88,1.5-2.21,0-3.59-1.46-3.59-3.29ZM290.82,48.27v-1.79c-3.22.16-4.08.86-4.08,1.79,0,.7.59,1.04,1.51,1.04.97,0,1.8-.45,2.57-1.05Z"/>
      <path class="cls-1" d="M301.63,43.17h-4.4v-2.54h7.64v10.93h-3.24v-8.39ZM300.95,36.94c0-1.19.9-2.01,2.15-2.01s2.15.83,2.15,2.01-.9,1.98-2.15,1.98-2.15-.79-2.15-1.98Z"/>
      <path class="cls-1" d="M310.3,40.63h2.64l.23,1.46h.09c.95-.93,2.15-1.72,3.78-1.72,2.47,0,3.56,1.69,3.56,4.45v6.75h-3.24v-6.33c0-1.45-.42-2.1-1.6-2.1-.86,0-1.45.4-2.21,1.14v7.29h-3.24v-10.93Z"/>
    </g>
    <g>
      <path class="cls-1" d="M202.45,68.37c0-2.56,1.49-4.08,3.52-4.08,1.05,0,1.74.49,2.2.97l-.68.75c-.36-.38-.8-.67-1.52-.67-1.36,0-2.27,1.14-2.27,3s.81,3.04,2.27,3.04c.48,0,.94-.15,1.2-.4v-1.87h-1.45v-.99h2.55v3.39c-.5.5-1.36.92-2.38.92-1.98,0-3.45-1.48-3.45-4.06Z"/>
      <path class="cls-1" d="M209.82,69.34c0-1.91,1.44-3.06,3.01-3.06,1.72,0,2.7,1.13,2.7,2.77,0,.25-.03.5-.05.65h-4.82v-.88h4.08l-.26.29c0-1.27-.61-1.91-1.61-1.91s-1.87.76-1.87,2.14.9,2.15,2.16,2.15c.66,0,1.18-.2,1.71-.52l.42.75c-.6.4-1.38.7-2.28.7-1.78,0-3.18-1.13-3.18-3.08Z"/>
      <path class="cls-1" d="M217.3,66.42h.98l.09.93h.05c.59-.6,1.25-1.08,2.16-1.08,1.37,0,2,.84,2,2.37v3.64h-1.2v-3.48c0-1.02-.34-1.5-1.21-1.5-.64,0-1.07.31-1.67.93v4.04h-1.19v-5.86Z"/>
      <path class="cls-1" d="M224.13,69.36c0-1.96,1.37-3.08,2.92-3.08s2.92,1.12,2.92,3.08-1.37,3.06-2.92,3.06-2.92-1.12-2.92-3.06ZM228.74,69.36c0-1.26-.66-2.1-1.7-2.1s-1.7.84-1.7,2.1.66,2.08,1.7,2.08,1.7-.83,1.7-2.08Z"/>
      <path class="cls-1" d="M231.27,66.42h.93l.09.76h.03c.28-.52.64-.9,1.32-.9.56,0,.92.34,1.09,1,.3-.6.68-1,1.35-1,.82,0,1.3.66,1.3,1.83v4.17h-1.16v-4.09c0-.59-.17-.9-.54-.9s-.56.27-.83.82v4.17h-1.03v-4.09c0-.59-.15-.9-.53-.9-.36,0-.59.27-.85.82v4.17h-1.16v-5.86Z"/>
      <path class="cls-1" d="M241.51,67.38h-2.62v-.95h3.81v5.86h-1.19v-4.91ZM241.12,64.43c0-.5.38-.85.89-.85s.89.35.89.85-.38.85-.89.85-.89-.33-.89-.85Z"/>
      <path class="cls-1" d="M245.97,69.36c0-1.96,1.52-3.08,3.3-3.08.95,0,1.67.37,2.15.84l-.57.75c-.47-.39-.95-.61-1.52-.61-1.26,0-2.13.84-2.13,2.1s.86,2.08,2.09,2.08c.7,0,1.27-.31,1.74-.69l.51.77c-.67.58-1.5.9-2.35.9-1.84,0-3.22-1.12-3.22-3.06Z"/>
      <path class="cls-1" d="M260.37,69.36c0-1.96,1.52-3.08,3.3-3.08.95,0,1.67.37,2.15.84l-.57.75c-.47-.39-.95-.61-1.52-.61-1.26,0-2.13.84-2.13,2.1s.86,2.08,2.09,2.08c.7,0,1.27-.31,1.74-.69l.51.77c-.67.58-1.5.9-2.35.9-1.84,0-3.22-1.12-3.22-3.06Z"/>
      <path class="cls-1" d="M267.33,69.36c0-1.96,1.37-3.08,2.92-3.08s2.92,1.12,2.92,3.08-1.37,3.06-2.92,3.06-2.92-1.12-2.92-3.06ZM271.94,69.36c0-1.26-.66-2.1-1.7-2.1s-1.7.84-1.7,2.1.66,2.08,1.7,2.08,1.7-.83,1.7-2.08Z"/>
      <path class="cls-1" d="M274.9,66.42h.98l.09.93h.05c.59-.6,1.26-1.08,2.16-1.08,1.37,0,2,.84,2,2.37v3.64h-1.2v-3.48c0-1.02-.34-1.5-1.21-1.5-.64,0-1.07.31-1.67.93v4.04h-1.19v-5.86Z"/>
      <path class="cls-1" d="M283.42,69.97v-2.59h-1.61v-.89l1.66-.06.16-1.86h.99v1.86h2.77v.95h-2.77v2.59c0,1.01.36,1.5,1.42,1.5.52,0,.93-.1,1.34-.25l.24.87c-.53.18-1.11.34-1.85.34-1.75,0-2.33-.99-2.33-2.46Z"/>
      <path class="cls-1" d="M289.02,69.34c0-1.91,1.44-3.06,3.01-3.06,1.72,0,2.7,1.13,2.7,2.77,0,.25-.03.5-.05.65h-4.82v-.88h4.08l-.26.29c0-1.27-.61-1.91-1.61-1.91s-1.87.76-1.87,2.14.9,2.15,2.16,2.15c.66,0,1.18-.2,1.71-.52l.42.75c-.6.4-1.38.7-2.28.7-1.78,0-3.18-1.13-3.18-3.08Z"/>
      <path class="cls-1" d="M298.3,69.24l-2.01-2.82h1.3l.84,1.19c.2.33.44.68.67.99h.05c.2-.32.43-.68.62-1l.78-1.18h1.26l-2.03,2.93,2.19,2.93h-1.31l-.92-1.25c-.24-.33-.5-.72-.75-1.05h-.05c-.22.35-.45.69-.68,1.06l-.86,1.24h-1.26l2.17-3.04Z"/>
      <path class="cls-1" d="M305.02,69.97v-2.59h-1.61v-.89l1.66-.06.16-1.86h.99v1.86h2.77v.95h-2.77v2.59c0,1.01.36,1.5,1.42,1.5.52,0,.93-.1,1.34-.25l.24.87c-.53.18-1.11.34-1.85.34-1.75,0-2.33-.99-2.33-2.46Z"/>
      <path class="cls-1" d="M255.15,81h-3.25v-1.31h3.25v-3.46h1.38v3.46h3.25v1.31h-3.25v3.46h-1.38v-3.46Z"/>
      <path class="cls-1" d="M159.78,92.43h2.48c1.73,0,2.95.59,2.95,2.37s-1.24,2.49-2.95,2.49h-1.27v3h-1.2v-7.85ZM162.15,96.32c1.26,0,1.87-.49,1.87-1.52s-.63-1.4-1.87-1.4h-1.16v2.92h1.16Z"/>
      <path class="cls-1" d="M167.49,94.42h.99l.11,1.36h.03c.61-.95,1.51-1.5,2.55-1.5.45,0,.79.07,1.15.24l-.26,1.02c-.4-.13-.62-.19-1.07-.19-.84,0-1.65.43-2.3,1.61v3.33h-1.19v-5.86Z"/>
      <path class="cls-1" d="M173.73,97.36c0-1.96,1.37-3.08,2.92-3.08s2.92,1.12,2.92,3.08-1.37,3.06-2.92,3.06-2.92-1.12-2.92-3.06ZM178.34,97.36c0-1.26-.66-2.1-1.7-2.1s-1.7.84-1.7,2.1.66,2.08,1.7,2.08,1.7-.83,1.7-2.08Z"/>
      <path class="cls-1" d="M182.62,97.97v-2.59h-1.61v-.89l1.66-.06.16-1.86h.99v1.86h2.77v.95h-2.77v2.59c0,1.01.36,1.5,1.42,1.5.52,0,.93-.1,1.34-.25l.24.87c-.53.18-1.11.34-1.85.34-1.75,0-2.33-.99-2.33-2.46Z"/>
      <path class="cls-1" d="M188.22,97.34c0-1.91,1.44-3.06,3.01-3.06,1.72,0,2.7,1.13,2.7,2.77,0,.25-.03.5-.05.65h-4.82v-.88h4.08l-.26.29c0-1.27-.61-1.91-1.61-1.91s-1.87.76-1.87,2.14.9,2.15,2.16,2.15c.66,0,1.18-.2,1.71-.52l.42.75c-.6.4-1.38.7-2.28.7-1.78,0-3.18-1.13-3.18-3.08Z"/>
      <path class="cls-1" d="M198.31,95.38h-2.62v-.95h3.81v5.86h-1.19v-4.91ZM197.92,92.43c0-.5.38-.85.89-.85s.89.35.89.85-.38.85-.89.85-.89-.33-.89-.85Z"/>
      <path class="cls-1" d="M202.9,94.42h.98l.09.93h.05c.59-.6,1.25-1.08,2.16-1.08,1.37,0,2,.84,2,2.37v3.64h-1.2v-3.48c0-1.02-.34-1.5-1.21-1.5-.64,0-1.07.31-1.67.93v4.04h-1.19v-5.86Z"/>
      <path class="cls-1" d="M216.93,97.36c0-1.91,1.26-3.08,2.61-3.08.68,0,1.2.26,1.69.72h.03l-.06-1.03v-2.19h1.19v8.5h-.98l-.1-.73h-.04c-.47.48-1.14.87-1.84.87-1.51,0-2.52-1.12-2.52-3.06ZM221.2,98.65v-2.77c-.47-.44-.92-.6-1.39-.6-.91,0-1.66.79-1.66,2.07s.59,2.08,1.57,2.08c.53,0,1.02-.25,1.48-.78Z"/>
      <path class="cls-1" d="M224.13,97.36c0-1.96,1.37-3.08,2.92-3.08s2.92,1.12,2.92,3.08-1.37,3.06-2.92,3.06-2.92-1.12-2.92-3.06ZM228.74,97.36c0-1.26-.66-2.1-1.7-2.1s-1.7.84-1.7,2.1.66,2.08,1.7,2.08,1.7-.83,1.7-2.08Z"/>
      <path class="cls-1" d="M231.27,94.42h.93l.09.76h.03c.28-.52.64-.9,1.32-.9.56,0,.92.34,1.09,1,.3-.6.68-1,1.35-1,.82,0,1.3.66,1.3,1.83v4.17h-1.16v-4.09c0-.59-.17-.9-.54-.9s-.56.27-.83.82v4.17h-1.03v-4.09c0-.59-.15-.9-.53-.9-.36,0-.59.27-.85.82v4.17h-1.16v-5.86Z"/>
      <path class="cls-1" d="M238.75,98.74c0-1.31,1.19-1.96,4.15-2.18-.04-.72-.43-1.31-1.47-1.31-.71,0-1.41.32-1.98.66l-.46-.8c.66-.41,1.63-.83,2.65-.83,1.62,0,2.46.93,2.46,2.47v3.53h-.99l-.1-.76h-.04c-.63.49-1.44.9-2.24.9-1.12,0-1.98-.66-1.98-1.69ZM242.9,98.69v-1.37c-2.3.17-2.98.63-2.98,1.33,0,.59.53.83,1.16.83s1.22-.29,1.83-.79Z"/>
      <path class="cls-1" d="M248.71,95.38h-2.62v-.95h3.81v5.86h-1.19v-4.91ZM248.32,92.43c0-.5.38-.85.89-.85s.89.35.89.85-.38.85-.89.85-.89-.33-.89-.85Z"/>
      <path class="cls-1" d="M253.3,94.42h.98l.09.93h.05c.59-.6,1.25-1.08,2.16-1.08,1.37,0,2,.84,2,2.37v3.64h-1.2v-3.48c0-1.02-.34-1.5-1.21-1.5-.64,0-1.07.31-1.67.93v4.04h-1.19v-5.86Z"/>
      <path class="cls-1" d="M267.55,98.74c0-1.31,1.19-1.96,4.15-2.18-.04-.72-.43-1.31-1.47-1.31-.71,0-1.41.32-1.98.66l-.46-.8c.66-.41,1.63-.83,2.65-.83,1.62,0,2.46.93,2.46,2.47v3.53h-.99l-.1-.76h-.04c-.63.49-1.44.9-2.24.9-1.12,0-1.98-.66-1.98-1.69ZM271.7,98.69v-1.37c-2.3.17-2.98.63-2.98,1.33,0,.59.53.83,1.16.83s1.22-.29,1.83-.79Z"/>
      <path class="cls-1" d="M275.5,94.42h.99l.11,1.36h.03c.61-.95,1.51-1.5,2.55-1.5.45,0,.79.07,1.15.24l-.26,1.02c-.4-.13-.62-.19-1.07-.19-.84,0-1.65.43-2.3,1.61v3.33h-1.19v-5.86Z"/>
      <path class="cls-1" d="M281.97,97.36c0-1.96,1.52-3.08,3.3-3.08.95,0,1.67.37,2.15.84l-.57.75c-.47-.39-.95-.61-1.52-.61-1.26,0-2.13.84-2.13,2.1s.86,2.08,2.09,2.08c.7,0,1.27-.31,1.74-.69l.51.77c-.67.58-1.5.9-2.35.9-1.84,0-3.22-1.12-3.22-3.06Z"/>
      <path class="cls-1" d="M289.3,91.78h1.19v2.25l-.07,1.32h.04c.55-.6,1.22-1.07,2.12-1.07,1.37,0,1.99.84,1.99,2.37v3.64h-1.2v-3.48c0-1.02-.34-1.5-1.21-1.5-.64,0-1.07.31-1.67.93v4.04h-1.19v-8.5Z"/>
      <path class="cls-1" d="M299.11,95.38h-2.62v-.95h3.81v5.86h-1.19v-4.91ZM298.72,92.43c0-.5.38-.85.89-.85s.89.35.89.85-.38.85-.89.85-.89-.33-.89-.85Z"/>
      <path class="cls-1" d="M305.02,97.97v-2.59h-1.61v-.89l1.66-.06.16-1.86h.99v1.86h2.77v.95h-2.77v2.59c0,1.01.36,1.5,1.42,1.5.52,0,.93-.1,1.34-.25l.24.87c-.53.18-1.11.34-1.85.34-1.75,0-2.33-.99-2.33-2.46Z"/>
      <path class="cls-1" d="M310.63,97.34c0-1.91,1.44-3.06,3.01-3.06,1.72,0,2.7,1.13,2.7,2.77,0,.25-.03.5-.05.65h-4.82v-.88h4.08l-.26.29c0-1.27-.61-1.91-1.61-1.91s-1.87.76-1.87,2.14.9,2.15,2.16,2.15c.66,0,1.18-.2,1.71-.52l.42.75c-.6.4-1.38.7-2.28.7-1.78,0-3.18-1.13-3.18-3.08Z"/>
      <path class="cls-1" d="M317.97,97.36c0-1.96,1.52-3.08,3.3-3.08.95,0,1.67.37,2.15.84l-.57.75c-.47-.39-.95-.61-1.52-.61-1.26,0-2.13.84-2.13,2.1s.86,2.08,2.09,2.08c.7,0,1.27-.31,1.74-.69l.51.77c-.67.58-1.5.9-2.35.9-1.84,0-3.22-1.12-3.22-3.06Z"/>
      <path class="cls-1" d="M326.62,97.97v-2.59h-1.61v-.89l1.66-.06.16-1.86h.99v1.86h2.77v.95h-2.77v2.59c0,1.01.36,1.5,1.42,1.5.52,0,.93-.1,1.34-.25l.24.87c-.53.18-1.11.34-1.85.34-1.75,0-2.33-.99-2.33-2.46Z"/>
      <path class="cls-1" d="M332.33,98.06v-3.64h1.2v3.48c0,1.01.34,1.5,1.22,1.5.61,0,1.06-.27,1.64-.97v-4.01h1.19v5.86h-.99l-.1-.98h-.05c-.57.66-1.24,1.12-2.13,1.12-1.37,0-1.99-.84-1.99-2.37Z"/>
      <path class="cls-1" d="M340.3,94.42h.99l.11,1.36h.03c.61-.95,1.51-1.5,2.55-1.5.45,0,.79.07,1.15.24l-.26,1.02c-.4-.13-.62-.19-1.07-.19-.84,0-1.65.43-2.3,1.61v3.33h-1.19v-5.86Z"/>
      <path class="cls-1" d="M346.63,97.34c0-1.91,1.44-3.06,3.01-3.06,1.72,0,2.7,1.13,2.7,2.77,0,.25-.03.5-.05.65h-4.82v-.88h4.08l-.26.29c0-1.27-.61-1.91-1.61-1.91s-1.87.76-1.87,2.14.9,2.15,2.16,2.15c.66,0,1.18-.2,1.71-.52l.42.75c-.6.4-1.38.7-2.28.7-1.78,0-3.18-1.13-3.18-3.08Z"/>
      <path class="cls-1" d="M251.03,109.8l.98-.88,3.11,3.37v-7.5h1.45v7.5l3.11-3.37.98.88-4.78,4.94h-.07l-4.78-4.94Z"/>
      <path class="cls-1" d="M196.15,120.43h4.93v1.01h-3.72v2.43h3.16v1.01h-3.16v3.39h-1.2v-7.85Z"/>
      <path class="cls-1" d="M202.72,126.06v-3.64h1.2v3.48c0,1.01.34,1.5,1.22,1.5.61,0,1.06-.27,1.64-.97v-4.01h1.19v5.86h-.99l-.1-.98h-.05c-.57.66-1.24,1.12-2.13,1.12-1.37,0-1.99-.84-1.99-2.37Z"/>
      <path class="cls-1" d="M210.1,122.42h.98l.09.93h.05c.59-.6,1.25-1.08,2.16-1.08,1.37,0,2,.84,2,2.37v3.64h-1.2v-3.48c0-1.02-.34-1.5-1.21-1.5-.64,0-1.07.31-1.67.93v4.04h-1.19v-5.86Z"/>
      <path class="cls-1" d="M217.16,125.36c0-1.96,1.52-3.08,3.3-3.08.95,0,1.67.37,2.15.84l-.57.75c-.47-.39-.95-.61-1.52-.61-1.26,0-2.13.84-2.13,2.1s.86,2.08,2.09,2.08c.7,0,1.27-.31,1.74-.69l.51.77c-.67.58-1.5.9-2.35.9-1.84,0-3.22-1.12-3.22-3.06Z"/>
      <path class="cls-1" d="M225.82,125.97v-2.59h-1.61v-.89l1.66-.06.16-1.86h.99v1.86h2.77v.95h-2.77v2.59c0,1.01.36,1.5,1.42,1.5.52,0,.93-.1,1.34-.25l.24.87c-.53.18-1.11.34-1.85.34-1.75,0-2.33-.99-2.33-2.46Z"/>
      <path class="cls-1" d="M234.31,123.38h-2.62v-.95h3.81v5.86h-1.19v-4.91ZM233.92,120.43c0-.5.38-.85.89-.85s.89.35.89.85-.38.85-.89.85-.89-.33-.89-.85Z"/>
      <path class="cls-1" d="M238.53,125.36c0-1.96,1.37-3.08,2.92-3.08s2.92,1.12,2.92,3.08-1.37,3.06-2.92,3.06-2.92-1.12-2.92-3.06ZM243.14,125.36c0-1.26-.66-2.1-1.7-2.1s-1.7.84-1.7,2.1.66,2.08,1.7,2.08,1.7-.83,1.7-2.08Z"/>
      <path class="cls-1" d="M246.1,122.42h.98l.09.93h.05c.59-.6,1.25-1.08,2.16-1.08,1.37,0,2,.84,2,2.37v3.64h-1.2v-3.48c0-1.02-.34-1.5-1.21-1.5-.64,0-1.07.31-1.67.93v4.04h-1.19v-5.86Z"/>
      <path class="cls-1" d="M263.11,123.38h-2.62v-.95h3.81v5.86h-1.19v-4.91ZM262.72,120.43c0-.5.38-.85.89-.85s.89.35.89.85-.38.85-.89.85-.89-.33-.89-.85Z"/>
      <path class="cls-1" d="M267.7,122.42h.98l.09.93h.05c.59-.6,1.25-1.08,2.16-1.08,1.37,0,2,.84,2,2.37v3.64h-1.2v-3.48c0-1.02-.34-1.5-1.21-1.5-.64,0-1.07.31-1.67.93v4.04h-1.19v-5.86Z"/>
      <path class="cls-1" d="M275.02,122.49l1.68-.06h3.49v.95h-5.16v-.89ZM276.66,122.02c0-1.4.76-2.38,2.43-2.38.6,0,1.17.12,1.71.33l-.26.89c-.45-.19-.84-.26-1.33-.26-.97,0-1.37.52-1.37,1.4v6.29h-1.19v-6.26Z"/>
      <path class="cls-1" d="M281.82,125.34c0-1.91,1.44-3.06,3.01-3.06,1.72,0,2.7,1.13,2.7,2.77,0,.25-.03.5-.05.65h-4.82v-.88h4.08l-.26.29c0-1.27-.61-1.91-1.61-1.91s-1.87.76-1.87,2.14.9,2.15,2.16,2.15c.66,0,1.18-.2,1.71-.52l.42.75c-.6.4-1.38.7-2.28.7-1.78,0-3.18-1.13-3.18-3.08Z"/>
      <path class="cls-1" d="M289.9,122.42h.99l.11,1.36h.03c.61-.95,1.51-1.5,2.55-1.5.45,0,.79.07,1.15.24l-.26,1.02c-.4-.13-.62-.19-1.07-.19-.84,0-1.65.43-2.3,1.61v3.33h-1.19v-5.86Z"/>
      <path class="cls-1" d="M296.22,125.34c0-1.91,1.44-3.06,3.01-3.06,1.72,0,2.7,1.13,2.7,2.77,0,.25-.03.5-.05.65h-4.82v-.88h4.08l-.26.29c0-1.27-.61-1.91-1.61-1.91s-1.87.76-1.87,2.14.9,2.15,2.16,2.15c.66,0,1.18-.2,1.71-.52l.42.75c-.6.4-1.38.7-2.28.7-1.78,0-3.18-1.13-3.18-3.08Z"/>
      <path class="cls-1" d="M303.7,122.42h.98l.09.93h.05c.59-.6,1.25-1.08,2.16-1.08,1.37,0,2,.84,2,2.37v3.64h-1.2v-3.48c0-1.02-.34-1.5-1.21-1.5-.64,0-1.07.31-1.67.93v4.04h-1.19v-5.86Z"/>
      <path class="cls-1" d="M310.77,125.36c0-1.96,1.52-3.08,3.3-3.08.95,0,1.67.37,2.15.84l-.57.75c-.47-.39-.95-.61-1.52-.61-1.26,0-2.13.84-2.13,2.1s.86,2.08,2.09,2.08c.7,0,1.27-.31,1.74-.69l.51.77c-.67.58-1.5.9-2.35.9-1.84,0-3.22-1.12-3.22-3.06Z"/>
      <path class="cls-1" d="M317.82,125.34c0-1.91,1.44-3.06,3.01-3.06,1.72,0,2.7,1.13,2.7,2.77,0,.25-.03.5-.05.65h-4.82v-.88h4.08l-.26.29c0-1.27-.61-1.91-1.61-1.91s-1.87.76-1.87,2.14.9,2.15,2.16,2.15c.66,0,1.18-.2,1.71-.52l.42.75c-.6.4-1.38.7-2.28.7-1.78,0-3.18-1.13-3.18-3.08Z"/>
    </g>
  </g>
</svg>
